  0
SECTION
  2
HEADER
  9
$ACADVER
  1
AC1018
  9
$ACADMAINTVER
 70
     0
  9
$DWGCODEPAGE
  3
ANSI_932
  9
$INSBASE
 10
0.0
 20
0.0
 30
0.0
  9
$EXTMIN
 10
1.000000000000000E+20
 20
1.000000000000000E+20
 30
1.000000000000000E+20
  9
$EXTMAX
 10
-1.000000000000000E+20
 20
-1.000000000000000E+20
 30
-1.000000000000000E+20
  9
$LIMMIN
 10
0.0
 20
0.0
  9
$LIMMAX
 10
12.0
 20
9.0
  9
$ORTHOMODE
 70
     0
  9
$REGENMODE
 70
     1
  9
$FILLMODE
 70
     1
  9
$QTEXTMODE
 70
     0
  9
$MIRRTEXT
 70
     1
  9
$LTSCALE
 40
1.0
  9
$ATTMODE
 70
     1
  9
$TEXTSIZE
 40
0.2
  9
$TRACEWID
 40
0.05
  9
$TEXTSTYLE
  7
Standard
  9
$CLAYER
  8
0
  9
$CELTYPE
  6
ByLayer
  9
$CECOLOR
 62
   256
  9
$CELTSCALE
 40
1.0
  9
$DISPSILH
 70
     0
  9
$DIMSCALE
 40
1.0
  9
$DIMASZ
 40
0.18
  9
$DIMEXO
 40
0.0625
  9
$DIMDLI
 40
0.38
  9
$DIMRND
 40
0.0
  9
$DIMDLE
 40
0.0
  9
$DIMEXE
 40
0.18
  9
$DIMTP
 40
0.0
  9
$DIMTM
 40
0.0
  9
$DIMTXT
 40
0.18
  9
$DIMCEN
 40
0.09
  9
$DIMTSZ
 40
0.0
  9
$DIMTOL
 70
     0
  9
$DIMLIM
 70
     0
  9
$DIMTIH
 70
     1
  9
$DIMTOH
 70
     1
  9
$DIMSE1
 70
     0
  9
$DIMSE2
 70
     0
  9
$DIMTAD
 70
     0
  9
$DIMZIN
 70
     0
  9
$DIMBLK
  1

  9
$DIMASO
 70
     1
  9
$DIMSHO
 70
     1
  9
$DIMPOST
  1

  9
$DIMAPOST
  1

  9
$DIMALT
 70
     0
  9
$DIMALTD
 70
     2
  9
$DIMALTF
 40
25.4
  9
$DIMLFAC
 40
1.0
  9
$DIMTOFL
 70
     0
  9
$DIMTVP
 40
0.0
  9
$DIMTIX
 70
     0
  9
$DIMSOXD
 70
     0
  9
$DIMSAH
 70
     0
  9
$DIMBLK1
  1

  9
$DIMBLK2
  1

  9
$DIMSTYLE
  2
Standard
  9
$DIMCLRD
 70
     0
  9
$DIMCLRE
 70
     0
  9
$DIMCLRT
 70
     0
  9
$DIMTFAC
 40
1.0
  9
$DIMGAP
 40
0.09
  9
$DIMJUST
 70
     0
  9
$DIMSD1
 70
     0
  9
$DIMSD2
 70
     0
  9
$DIMTOLJ
 70
     1
  9
$DIMTZIN
 70
     0
  9
$DIMALTZ
 70
     0
  9
$DIMALTTZ
 70
     0
  9
$DIMUPT
 70
     0
  9
$DIMDEC
 70
     4
  9
$DIMTDEC
 70
     4
  9
$DIMALTU
 70
     2
  9
$DIMALTTD
 70
     2
  9
$DIMTXSTY
  7
Standard
  9
$DIMAUNIT
 70
     0
  9
$DIMADEC
 70
     0
  9
$DIMALTRND
 40
0.0
  9
$DIMAZIN
 70
     0
  9
$DIMDSEP
 70
    46
  9
$DIMATFIT
 70
     3
  9
$DIMFRAC
 70
     0
  9
$DIMLDRBLK
  1

  9
$DIMLUNIT
 70
     2
  9
$DIMLWD
 70
    -2
  9
$DIMLWE
 70
    -2
  9
$DIMTMOVE
 70
     0
  9
$LUNITS
 70
     2
  9
$LUPREC
 70
     4
  9
$SKETCHINC
 40
0.1
  9
$FILLETRAD
 40
0.5
  9
$AUNITS
 70
     0
  9
$AUPREC
 70
     0
  9
$MENU
  1
.
  9
$ELEVATION
 40
0.0
  9
$PELEVATION
 40
0.0
  9
$THICKNESS
 40
0.0
  9
$LIMCHECK
 70
     0
  9
$CHAMFERA
 40
0.5
  9
$CHAMFERB
 40
0.5
  9
$CHAMFERC
 40
1.0
  9
$CHAMFERD
 40
0.0
  9
$SKPOLY
 70
     0
  9
$TDCREATE
 40
2458794.694722222
  9
$TDUCREATE
 40
2458794.653055556
  9
$TDUPDATE
 40
2458794.694722234
  9
$TDUUPDATE
 40
2458794.653055567
  9
$TDINDWG
 40
0.0000000116
  9
$TDUSRTIMER
 40
0.0000000116
  9
$USRTIMER
 70
     1
  9
$ANGBASE
 50
0.0
  9
$ANGDIR
 70
     0
  9
$PDMODE
 70
     0
  9
$PDSIZE
 40
0.0
  9
$PLINEWID
 40
0.0
  9
$SPLFRAME
 70
     0
  9
$SPLINETYPE
 70
     6
  9
$SPLINESEGS
 70
     8
  9
$HANDSEED
  5
22B
  9
$SURFTAB1
 70
     6
  9
$SURFTAB2
 70
     6
  9
$SURFTYPE
 70
     6
  9
$SURFU
 70
     6
  9
$SURFV
 70
     6
  9
$UCSBASE
  2

  9
$UCSNAME
  2

  9
$UCSORG
 10
0.0
 20
0.0
 30
0.0
  9
$UCSXDIR
 10
1.0
 20
0.0
 30
0.0
  9
$UCSYDIR
 10
0.0
 20
1.0
 30
0.0
  9
$UCSORTHOREF
  2

  9
$UCSORTHOVIEW
 70
     0
  9
$UCSORGTOP
 10
0.0
 20
0.0
 30
0.0
  9
$UCSORGBOTTOM
 10
0.0
 20
0.0
 30
0.0
  9
$UCSORGLEFT
 10
0.0
 20
0.0
 30
0.0
  9
$UCSORGRIGHT
 10
0.0
 20
0.0
 30
0.0
  9
$UCSORGFRONT
 10
0.0
 20
0.0
 30
0.0
  9
$UCSORGBACK
 10
0.0
 20
0.0
 30
0.0
  9
$PUCSBASE
  2

  9
$PUCSNAME
  2

  9
$PUCSORG
 10
0.0
 20
0.0
 30
0.0
  9
$PUCSXDIR
 10
1.0
 20
0.0
 30
0.0
  9
$PUCSYDIR
 10
0.0
 20
1.0
 30
0.0
  9
$PUCSORTHOREF
  2

  9
$PUCSORTHOVIEW
 70
     0
  9
$PUCSORGTOP
 10
0.0
 20
0.0
 30
0.0
  9
$PUCSORGBOTTOM
 10
0.0
 20
0.0
 30
0.0
  9
$PUCSORGLEFT
 10
0.0
 20
0.0
 30
0.0
  9
$PUCSORGRIGHT
 10
0.0
 20
0.0
 30
0.0
  9
$PUCSORGFRONT
 10
0.0
 20
0.0
 30
0.0
  9
$PUCSORGBACK
 10
0.0
 20
0.0
 30
0.0
  9
$USERI1
 70
     0
  9
$USERI2
 70
     0
  9
$USERI3
 70
     0
  9
$USERI4
 70
     0
  9
$USERI5
 70
     0
  9
$USERR1
 40
0.0
  9
$USERR2
 40
0.0
  9
$USERR3
 40
0.0
  9
$USERR4
 40
0.0
  9
$USERR5
 40
0.0
  9
$WORLDVIEW
 70
     1
  9
$SHADEDGE
 70
     3
  9
$SHADEDIF
 70
    70
  9
$TILEMODE
 70
     1
  9
$MAXACTVP
 70
    64
  9
$PINSBASE
 10
0.0
 20
0.0
 30
0.0
  9
$PLIMCHECK
 70
     0
  9
$PEXTMIN
 10
1.000000000000000E+20
 20
1.000000000000000E+20
 30
1.000000000000000E+20
  9
$PEXTMAX
 10
-1.000000000000000E+20
 20
-1.000000000000000E+20
 30
-1.000000000000000E+20
  9
$PLIMMIN
 10
0.0
 20
0.0
  9
$PLIMMAX
 10
12.0
 20
9.0
  9
$UNITMODE
 70
     0
  9
$VISRETAIN
 70
     1
  9
$PLINEGEN
 70
     0
  9
$PSLTSCALE
 70
     1
  9
$TREEDEPTH
 70
  3020
  9
$CMLSTYLE
  2
Standard
  9
$CMLJUST
 70
     0
  9
$CMLSCALE
 40
1.0
  9
$PROXYGRAPHICS
 70
     1
  9
$MEASUREMENT
 70
     0
  9
$CELWEIGHT
370
    -1
  9
$ENDCAPS
280
     0
  9
$JOINSTYLE
280
     0
  9
$LWDISPLAY
290
     1
  9
$INSUNITS
 70
     1
  9
$HYPERLINKBASE
  1

  9
$STYLESHEET
  1

  9
$XEDIT
290
     1
  9
$CEPSNTYPE
380
     0
  9
$PSTYLEMODE
290
     1
  9
$FINGERPRINTGUID
  2
{53345E78-861A-F528-E811-C8CF67D00B00}
  9
$VERSIONGUID
  2
{FAEB1C32-E019-11D5-929B-00C0DF256EC4}
  9
$EXTNAMES
290
     1
  9
$PSVPSCALE
 40
0.0
  9
$OLESTARTUP
290
     0
  9
$SORTENTS
280
   127
  9
$INDEXCTL
280
     0
  9
$HIDETEXT
280
     1
  9
$XCLIPFRAME
290
     0
  9
$HALOGAP
280
     0
  9
$OBSCOLOR
 70
   257
  9
$OBSLTYPE
280
     0
  9
$INTERSECTIONDISPLAY
280
     0
  9
$INTERSECTIONCOLOR
 70
   257
  9
$DIMASSOC
280
     2
  9
$PROJECTNAME
  1

  0
ENDSEC
  0
SECTION
  2
CLASSES
  0
CLASS
  1
ACDBDICTIONARYWDFLT
  2
AcDbDictionaryWithDefault
  3
ObjectDBX Classes
 90
        0
 91
        3
280
     0
281
     0
  0
CLASS
  1
VISUALSTYLE
  2
AcDbVisualStyle
  3
ObjectDBX Classes
 90
     4095
 91
        3
280
     0
281
     0
  0
ENDSEC
  0
SECTION
  2
TABLES
  0
TABLE
  2
VPORT
  5
8
330
0
100
AcDbSymbolTable
 70
     1
  0
VPORT
  5
29
330
8
100
AcDbSymbolTableRecord
100
AcDbViewportTableRecord
  2
*Active
 70
     0
 10
0.0
 20
0.0
 11
1.0
 21
1.0
 12
0.0
 22
0.0
 13
0.0
 23
0.0
 14
0.5
 24
0.5
 15
0.5
 25
0.5
 16
0.0
 26
0.0
 36
1.0
 17
304.9992986976217
 27
-152.5005967500693
 37
0.0
 40
305.0011935001386
 41
1.999987575114083
 42
50.0
 43
0.0
 44
0.0
 50
0.0
 51
0.0
 71
     0
 72
   100
 73
     1
 74
     3
 75
     0
 76
     0
 77
     0
 78
     0
281
     0
 65
     1
110
0.0
120
0.0
130
0.0
111
1.0
121
0.0
131
0.0
112
0.0
122
1.0
132
0.0
 79
     0
146
0.0
  0
ENDTAB
  0
TABLE
  2
LTYPE
  5
5
330
0
100
AcDbSymbolTable
 70
     1
  0
LTYPE
  5
14
330
5
100
AcDbSymbolTableRecord
100
AcDbLinetypeTableRecord
  2
ByBlock
 70
     0
  3

 72
    65
 73
     0
 40
0.0
  0
LTYPE
  5
15
330
5
100
AcDbSymbolTableRecord
100
AcDbLinetypeTableRecord
  2
ByLayer
 70
     0
  3

 72
    65
 73
     0
 40
0.0
  0
LTYPE
  5
16
330
5
100
AcDbSymbolTableRecord
100
AcDbLinetypeTableRecord
  2
Continuous
 70
     0
  3
Solid line
 72
    65
 73
     0
 40
0.0
  0
ENDTAB
  0
TABLE
  2
LAYER
  5
2
330
0
100
AcDbSymbolTable
 70
     2
  0
LAYER
  5
10
330
2
100
AcDbSymbolTableRecord
100
AcDbLayerTableRecord
  2
0
 70
     0
 62
     7
  6
Continuous
370
    -3
390
F
  0
LAYER
  5
3B
330
2
100
AcDbSymbolTableRecord
100
AcDbLayerTableRecord
  2
sideviews
 70
     0
 62
     7
  6
Continuous
370
    -3
390
F
  0
ENDTAB
  0
TABLE
  2
STYLE
  5
3
330
0
100
AcDbSymbolTable
 70
     1
  0
STYLE
  5
11
330
3
100
AcDbSymbolTableRecord
100
AcDbTextStyleTableRecord
  2
Standard
 70
     0
 40
0.0
 41
1.0
 50
0.0
 71
     0
 42
0.2
  3
txt
  4

  0
ENDTAB
  0
TABLE
  2
VIEW
  5
6
330
0
100
AcDbSymbolTable
 70
     0
  0
ENDTAB
  0
TABLE
  2
UCS
  5
7
330
0
100
AcDbSymbolTable
 70
     0
  0
ENDTAB
  0
TABLE
  2
APPID
  5
9
330
0
100
AcDbSymbolTable
 70
     1
  0
APPID
  5
12
330
9
100
AcDbSymbolTableRecord
100
AcDbRegAppTableRecord
  2
ACAD
 70
     0
  0
ENDTAB
  0
TABLE
  2
DIMSTYLE
  5
A
330
0
100
AcDbSymbolTable
 70
     1
100
AcDbDimStyleTable
  0
DIMSTYLE
105
27
330
A
100
AcDbSymbolTableRecord
100
AcDbDimStyleTableRecord
  2
Standard
 70
     0
340
11
  0
ENDTAB
  0
TABLE
  2
BLOCK_RECORD
  5
1
330
0
100
AcDbSymbolTable
 70
     2
  0
BLOCK_RECORD
  5
1F
330
1
100
AcDbSymbolTableRecord
100
AcDbBlockTableRecord
  2
*Model_Space
340
22
  0
BLOCK_RECORD
  5
1B
330
1
100
AcDbSymbolTableRecord
100
AcDbBlockTableRecord
  2
*Paper_Space
340
1E
  0
BLOCK_RECORD
  5
23
330
1
100
AcDbSymbolTableRecord
100
AcDbBlockTableRecord
  2
*Paper_Space0
340
26
  0
BLOCK_RECORD
  5
1F4
330
1
100
AcDbSymbolTableRecord
100
AcDbBlockTableRecord
  2
block 2
340
0
102
{BLKREFS
331
1F5
102
}
  0
ENDTAB
  0
ENDSEC
  0
SECTION
  2
BLOCKS
  0
BLOCK
  5
20
330
1F
100
AcDbEntity
  8
0
100
AcDbBlockBegin
  2
*Model_Space
 70
     0
 71
     0
 10
0.0
 20
0.0
 30
0.0
  3
*Model_Space
  1

  0
ENDBLK
  5
21
330
1F
100
AcDbEntity
  8
0
100
AcDbBlockEnd
  0
BLOCK
  5
1C
330
1B
100
AcDbEntity
 67
     1
  8
0
100
AcDbBlockBegin
  2
*Paper_Space
 70
     0
 71
     0
 10
0.0
 20
0.0
 30
0.0
  3
*Paper_Space
  1

  0
ENDBLK
  5
1D
330
1B
100
AcDbEntity
 67
     1
  8
0
100
AcDbBlockEnd
  0
BLOCK
  5
24
330
23
100
AcDbEntity
  8
0
100
AcDbBlockBegin
  2
*Paper_Space0
 70
     0
 71
     0
 10
0.0
 20
0.0
 30
0.0
  3
*Paper_Space0
  1

  0
ENDBLK
  5
25
330
23
100
AcDbEntity
  8
0
100
AcDbBlockEnd
  0
BLOCK
  5
1F6
330
1F4
100
AcDbEntity
  8
0
100
AcDbBlockBegin
  2
block 2
 70
     0
 71
     0
 10
0.0
 20
0.0
 30
0.0
  3
block 2
  1

  0
SPLINE
  5
1F8
330
1F4
100
AcDbEntity
  8
sideviews
 62
     3
370
    35
100
AcDbSpline
210
0.0
220
0.0
230
1.0
 70
     8
 71
     3
 72
     8
 73
     4
 74
     0
 42
0.0000000001
 43
0.0000000001
 40
0.0
 40
0.0
 40
0.0
 40
0.0
 40
1.0
 40
1.0
 40
1.0
 40
1.0
 10
69.8141709894909
 20
-242.0644666278519
 30
0.0
 10
86.60418834640451
 20
-240.0873263288671
 30
0.0
 10
220.091992132477
 20
-233.0000758966111
 30
0.0
 10
322.0554496807709
 20
-233.0000758966111
 30
0.0
  0
ENDBLK
  5
1F7
330
1F4
100
AcDbEntity
  8
0
100
AcDbBlockEnd
  0
ENDSEC
  0
SECTION
  2
ENTITIES
  0
POLYLINE
  5
3C
330
1F
100
AcDbEntity
  8
sideviews
 62
     1
370
    35
100
AcDb2dPolyline
 66
     1
 10
0.0
 20
0.0
 30
0.0
  0
VERTEX
  5
3D
330
3C
100
AcDbEntity
  8
sideviews
 62
     1
370
    35
100
AcDbVertex
100
AcDb2dVertex
 10
11.68696966938729
 20
-66.34978296952367
 30
0.0
  0
VERTEX
  5
3E
330
3C
100
AcDbEntity
  8
sideviews
 62
     1
370
    35
100
AcDbVertex
100
AcDb2dVertex
 10
88.97010767089984
 20
-66.34978296952367
 30
0.0
  0
SEQEND
  5
3F
330
3C
100
AcDbEntity
  8
sideviews
370
    35
  0
POLYLINE
  5
40
330
1F
100
AcDbEntity
  8
sideviews
 62
     1
370
    35
100
AcDb2dPolyline
 66
     1
 10
0.0
 20
0.0
 30
0.0
  0
VERTEX
  5
41
330
40
100
AcDbEntity
  8
sideviews
 62
     1
370
    35
100
AcDbVertex
100
AcDb2dVertex
 10
138.9999565624722
 20
-66.34978296952367
 30
0.0
  0
VERTEX
  5
42
330
40
100
AcDbEntity
  8
sideviews
 62
     1
370
    35
100
AcDbVertex
100
AcDb2dVertex
 10
497.0001544981458
 20
-66.34978296952367
 30
0.0
  0
SEQEND
  5
43
330
40
100
AcDbEntity
  8
sideviews
370
    35
  0
POLYLINE
  5
44
330
1F
100
AcDbEntity
  8
sideviews
 62
     1
370
    35
100
AcDb2dPolyline
 66
     1
 10
0.0
 20
0.0
 30
0.0
  0
VERTEX
  5
45
330
44
100
AcDbEntity
  8
sideviews
 62
     1
370
    35
100
AcDbVertex
100
AcDb2dVertex
 10
581.9999618770695
 20
-50.35007051692637
 30
0.0
  0
VERTEX
  5
46
330
44
100
AcDbEntity
  8
sideviews
 62
     1
370
    35
100
AcDbVertex
100
AcDb2dVertex
 10
581.9999618770695
 20
-21.34994574119029
 30
0.0
  0
SEQEND
  5
47
330
44
100
AcDbEntity
  8
sideviews
370
    35
  0
POLYLINE
  5
48
330
1F
100
AcDbEntity
  8
sideviews
 62
     1
370
    35
100
AcDb2dPolyline
 66
     1
 10
0.0
 20
0.0
 30
0.0
  0
VERTEX
  5
49
330
48
100
AcDbEntity
  8
sideviews
 62
     1
370
    35
100
AcDbVertex
100
AcDb2dVertex
 10
581.9999618770695
 20
-21.34994574119029
 30
0.0
  0
VERTEX
  5
4A
330
48
100
AcDbEntity
  8
sideviews
 62
     1
370
    35
100
AcDbVertex
100
AcDb2dVertex
 10
440.3548610010224
 20
-2.363680012429914
 30
0.0
  0
SEQEND
  5
4B
330
48
100
AcDbEntity
  8
sideviews
370
    35
  0
POLYLINE
  5
4C
330
1F
100
AcDbEntity
  8
sideviews
 62
     1
370
    35
100
AcDb2dPolyline
 66
     1
 10
0.0
 20
0.0
 30
0.0
  0
VERTEX
  5
4D
330
4C
100
AcDbEntity
  8
sideviews
 62
     1
370
    35
100
AcDbVertex
100
AcDb2dVertex
 10
204.0480102028943
 20
-45.99546982357058
 30
0.0
  0
VERTEX
  5
4E
330
4C
100
AcDbEntity
  8
sideviews
 62
     1
370
    35
100
AcDbVertex
100
AcDb2dVertex
 10
390.8843233614803
 20
-45.99546982357058
 30
0.0
  0
SEQEND
  5
4F
330
4C
100
AcDbEntity
  8
sideviews
370
    35
  0
POLYLINE
  5
50
330
1F
100
AcDbEntity
  8
sideviews
 62
     1
370
    35
100
AcDb2dPolyline
 66
     1
 10
0.0
 20
0.0
 30
0.0
  0
VERTEX
  5
51
330
50
100
AcDbEntity
  8
sideviews
 62
     1
370
    35
100
AcDbVertex
100
AcDb2dVertex
 10
175.999937564507
 20
-11.35003933092985
 30
0.0
  0
VERTEX
  5
52
330
50
100
AcDbEntity
  8
sideviews
 62
     1
370
    35
100
AcDbVertex
100
AcDb2dVertex
 10
204.0480102028943
 20
-45.99546982357058
 30
0.0
  0
SEQEND
  5
53
330
50
100
AcDbEntity
  8
sideviews
370
    35
  0
POLYLINE
  5
54
330
1F
100
AcDbEntity
  8
sideviews
 62
     1
370
    35
100
AcDb2dPolyline
 66
     1
 10
0.0
 20
0.0
 30
0.0
  0
VERTEX
  5
55
330
54
100
AcDbEntity
  8
sideviews
 62
     1
370
    35
100
AcDbVertex
100
AcDb2dVertex
 10
493.2501680624514
 20
-45.10697969792464
 30
0.0
  0
VERTEX
  5
56
330
54
100
AcDbEntity
  8
sideviews
 62
     1
370
    35
100
AcDbVertex
100
AcDb2dVertex
 10
493.2501680624514
 20
-25.34970159956535
 30
0.0
  0
SEQEND
  5
57
330
54
100
AcDbEntity
  8
sideviews
370
    35
  0
POLYLINE
  5
58
330
1F
100
AcDbEntity
  8
sideviews
 62
     1
370
    35
100
AcDb2dPolyline
 66
     1
 10
0.0
 20
0.0
 30
0.0
  0
VERTEX
  5
59
330
58
100
AcDbEntity
  8
sideviews
 62
     1
370
    35
100
AcDbVertex
100
AcDb2dVertex
 10
412.7499998968125
 20
-42.85009764553747
 30
0.0
  0
VERTEX
  5
5A
330
58
100
AcDbEntity
  8
sideviews
 62
     1
370
    35
100
AcDbVertex
100
AcDb2dVertex
 10
412.7499998968125
 20
-57.85004338831527
 30
0.0
  0
VERTEX
  5
5B
330
58
100
AcDbEntity
  8
sideviews
 62
     1
370
    35
100
AcDbVertex
100
AcDb2dVertex
 10
411.2500053225347
 20
-57.85004338831527
 30
0.0
  0
VERTEX
  5
5C
330
58
100
AcDbEntity
  8
sideviews
 62
     1
370
    35
100
AcDbVertex
100
AcDb2dVertex
 10
411.2500053225347
 20
-42.85009764553747
 30
0.0
  0
SEQEND
  5
5D
330
58
100
AcDbEntity
  8
sideviews
370
    35
  0
SPLINE
  5
5E
330
1F
100
AcDbEntity
  8
sideviews
 62
     1
370
    35
100
AcDbSpline
210
0.0
220
0.0
230
1.0
 70
    11
 71
     3
 72
    29
 73
    25
 74
     0
 42
0.0000000001
 43
0.0000000001
 40
0.0
 40
0.0
 40
0.0
 40
0.0
 40
1.0
 40
1.0
 40
1.0
 40
2.0
 40
2.0
 40
2.0
 40
3.0
 40
3.0
 40
3.0
 40
4.0
 40
4.0
 40
4.0
 40
5.0
 40
5.0
 40
5.0
 40
6.0
 40
6.0
 40
6.0
 40
7.0
 40
7.0
 40
7.0
 40
8.0
 40
8.0
 40
8.0
 40
8.0
 10
76.28061521530485
 20
-55.16321341936892
 30
0.0
 10
76.28061521530485
 20
-57.37255315405964
 30
0.0
 10
75.25242646773204
 20
-59.16331378729251
 30
0.0
 10
73.9846313291601
 20
-59.16331378729251
 30
0.0
 10
73.9846313291601
 20
-59.16331378729251
 30
0.0
 10
46.57665743193223
 20
-59.16331378729251
 30
0.0
 10
46.57665743193223
 20
-59.16331378729251
 30
0.0
 10
45.30920680290881
 20
-59.16331378729251
 30
0.0
 10
44.28050129101321
 20
-57.37255315405964
 30
0.0
 10
44.28050129101321
 20
-55.16321341936892
 30
0.0
 10
44.28050129101321
 20
-55.16321341936892
 30
0.0
 10
44.28050129101321
 20
-55.16321341936892
 30
0.0
 10
44.28050129101321
 20
-55.16321341936892
 30
0.0
 10
44.28050129101321
 20
-52.95421819422673
 30
0.0
 10
45.30920680290881
 20
-51.16345756099386
 30
0.0
 10
46.57665743193223
 20
-51.16345756099386
 30
0.0
 10
46.57665743193223
 20
-51.16345756099386
 30
0.0
 10
73.9846313291601
 20
-51.16345756099386
 30
0.0
 10
73.9846313291601
 20
-51.16345756099386
 30
0.0
 10
75.25242646773204
 20
-51.16345756099386
 30
0.0
 10
76.28061521530485
 20
-52.95421819422673
 30
0.0
 10
76.28061521530485
 20
-55.16321341936892
 30
0.0
 10
76.28061521530485
 20
-55.16321341936892
 30
0.0
 10
76.28061521530485
 20
-55.16321341936892
 30
0.0
 10
76.28061521530485
 20
-55.16321341936892
 30
0.0
  0
SPLINE
  5
5F
330
1F
100
AcDbEntity
  8
sideviews
 62
     1
370
    35
100
AcDbSpline
210
0.0
220
0.0
230
1.0
 70
     8
 71
     3
 72
    11
 73
     7
 74
     0
 42
0.0000000001
 43
0.0000000001
 40
0.0
 40
0.0
 40
0.0
 40
0.0
 40
1.0
 40
1.0
 40
1.0
 40
2.0
 40
2.0
 40
2.0
 40
2.0
 10
475.6043889870017
 20
-41.7927978411143
 30
0.0
 10
475.6043889870017
 20
-38.34150118399101
 30
0.0
 10
478.4679523543414
 20
-35.54408364996814
 30
0.0
 10
482.0005532649166
 20
-35.54408364996814
 30
0.0
 10
485.5328096659432
 20
-35.54408364996814
 30
0.0
 10
488.3956840141858
 20
-38.34150118399101
 30
0.0
 10
488.3956840141858
 20
-41.7927978411143
 30
0.0
  0
SPLINE
  5
60
330
1F
100
AcDbEntity
  8
sideviews
 62
     1
370
    35
100
AcDbSpline
210
0.0
220
0.0
230
1.0
 70
     8
 71
     3
 72
    11
 73
     7
 74
     0
 42
0.0000000001
 43
0.0000000001
 40
0.0
 40
0.0
 40
0.0
 40
0.0
 40
1.0
 40
1.0
 40
1.0
 40
2.0
 40
2.0
 40
2.0
 40
2.0
 10
475.6043889870017
 20
-46.90773110806474
 30
0.0
 10
475.6043889870017
 20
-50.3586832556395
 30
0.0
 10
478.4679523543414
 20
-53.15575628011384
 30
0.0
 10
482.0005532649166
 20
-53.15575628011384
 30
0.0
 10
485.5328096659432
 20
-53.15575628011384
 30
0.0
 10
488.3956840141858
 20
-50.3586832556395
 30
0.0
 10
488.3956840141858
 20
-46.90773110806474
 30
0.0
  0
POLYLINE
  5
61
330
1F
100
AcDbEntity
  8
sideviews
 62
     1
370
    35
100
AcDb2dPolyline
 66
     1
 10
0.0
 20
0.0
 30
0.0
  0
VERTEX
  5
62
330
61
100
AcDbEntity
  8
sideviews
 62
     1
370
    35
100
AcDbVertex
100
AcDb2dVertex
 10
475.6043889870017
 20
-41.7927978411143
 30
0.0
  0
VERTEX
  5
63
330
61
100
AcDbEntity
  8
sideviews
 62
     1
370
    35
100
AcDbVertex
100
AcDb2dVertex
 10
475.6043889870017
 20
-46.90773110806474
 30
0.0
  0
SEQEND
  5
64
330
61
100
AcDbEntity
  8
sideviews
370
    35
  0
POLYLINE
  5
65
330
1F
100
AcDbEntity
  8
sideviews
 62
     1
370
    35
100
AcDb2dPolyline
 66
     1
 10
0.0
 20
0.0
 30
0.0
  0
VERTEX
  5
66
330
65
100
AcDbEntity
  8
sideviews
 62
     1
370
    35
100
AcDbVertex
100
AcDb2dVertex
 10
488.3956840141858
 20
-41.7927978411143
 30
0.0
  0
VERTEX
  5
67
330
65
100
AcDbEntity
  8
sideviews
 62
     1
370
    35
100
AcDbVertex
100
AcDb2dVertex
 10
488.3956840141858
 20
-46.90773110806474
 30
0.0
  0
SEQEND
  5
68
330
65
100
AcDbEntity
  8
sideviews
370
    35
  0
SPLINE
  5
69
330
1F
100
AcDbEntity
  8
sideviews
 62
     1
370
    35
100
AcDbSpline
210
0.0
220
0.0
230
1.0
 70
     8
 71
     3
 72
     8
 73
     4
 74
     0
 42
0.0000000001
 43
0.0000000001
 40
0.0
 40
0.0
 40
0.0
 40
0.0
 40
1.0
 40
1.0
 40
1.0
 40
1.0
 10
125.9397718326644
 20
-41.67118597048498
 30
0.0
 10
122.5890719637104
 20
-41.67118597048498
 30
0.0
 10
119.8726141735909
 20
-38.97849933921371
 30
0.0
 10
119.8726141735909
 20
-35.65639376278729
 30
0.0
  0
SPLINE
  5
6A
330
1F
100
AcDbEntity
  8
sideviews
 62
     1
370
    35
100
AcDbSpline
210
0.0
220
0.0
230
1.0
 70
     8
 71
     3
 72
     8
 73
     4
 74
     0
 42
0.0000000001
 43
0.0000000001
 40
0.0
 40
0.0
 40
0.0
 40
0.0
 40
1.0
 40
1.0
 40
1.0
 40
1.0
 10
132.0069294917378
 20
-35.65639376278729
 30
0.0
 10
132.0069294917378
 20
-38.97849933921371
 30
0.0
 10
129.2904717016184
 20
-41.67118597048498
 30
0.0
 10
125.9397718326644
 20
-41.67118597048498
 30
0.0
  0
POLYLINE
  5
6B
330
1F
100
AcDbEntity
  8
sideviews
 62
     1
370
    35
100
AcDb2dPolyline
 66
     1
 10
0.0
 20
0.0
 30
0.0
  0
VERTEX
  5
6C
330
6B
100
AcDbEntity
  8
sideviews
 62
     1
370
    35
100
AcDbVertex
100
AcDb2dVertex
 10
177.9999877484688
 20
-30.83188204524342
 30
0.0
  0
VERTEX
  5
6D
330
6B
100
AcDbEntity
  8
sideviews
 62
     1
370
    35
100
AcDbVertex
100
AcDb2dVertex
 10
177.9999877484688
 20
-45.86731227151928
 30
0.0
  0
VERTEX
  5
6E
330
6B
100
AcDbEntity
  8
sideviews
 62
     1
370
    35
100
AcDbVertex
100
AcDb2dVertex
 10
176.4831122063133
 20
-45.86731227151928
 30
0.0
  0
VERTEX
  5
6F
330
6B
100
AcDbEntity
  8
sideviews
 62
     1
370
    35
100
AcDbVertex
100
AcDb2dVertex
 10
176.4831122063133
 20
-30.83188204524342
 30
0.0
  0
SEQEND
  5
70
330
6B
100
AcDbEntity
  8
sideviews
370
    35
  0
POLYLINE
  5
71
330
1F
100
AcDbEntity
  8
sideviews
 62
     1
370
    35
100
AcDb2dPolyline
 66
     1
 10
0.0
 20
0.0
 30
0.0
  0
VERTEX
  5
72
330
71
100
AcDbEntity
  8
sideviews
 62
     1
370
    35
100
AcDbVertex
100
AcDb2dVertex
 10
98.14370792902311
 20
-38.6239990137815
 30
0.0
  0
VERTEX
  5
73
330
71
100
AcDbEntity
  8
sideviews
 62
     1
370
    35
100
AcDbVertex
100
AcDb2dVertex
 10
98.14370792902311
 20
-53.65977374960589
 30
0.0
  0
VERTEX
  5
74
330
71
100
AcDbEntity
  8
sideviews
 62
     1
370
    35
100
AcDbVertex
100
AcDb2dVertex
 10
96.62700464164186
 20
-53.65977374960589
 30
0.0
  0
VERTEX
  5
75
330
71
100
AcDbEntity
  8
sideviews
 62
     1
370
    35
100
AcDbVertex
100
AcDb2dVertex
 10
96.62700464164186
 20
-38.6239990137815
 30
0.0
  0
SEQEND
  5
76
330
71
100
AcDbEntity
  8
sideviews
370
    35
  0
POLYLINE
  5
77
330
1F
100
AcDbEntity
  8
sideviews
 62
     1
370
    35
100
AcDb2dPolyline
 66
     1
 10
0.0
 20
0.0
 30
0.0
  0
VERTEX
  5
78
330
77
100
AcDbEntity
  8
sideviews
 62
     1
370
    35
100
AcDbVertex
100
AcDb2dVertex
 10
139.0001288172465
 20
-66.34978296952367
 30
0.0
  0
VERTEX
  5
79
330
77
100
AcDbEntity
  8
sideviews
 62
     1
370
    35
100
AcDbVertex
100
AcDb2dVertex
 10
139.0001288172465
 20
-59.349348943496
 30
0.0
  0
VERTEX
  5
7A
330
77
100
AcDbEntity
  8
sideviews
 62
     1
370
    35
100
AcDbVertex
100
AcDb2dVertex
 10
89.02988007756892
 20
-59.349348943496
 30
0.0
  0
VERTEX
  5
7B
330
77
100
AcDbEntity
  8
sideviews
 62
     1
370
    35
100
AcDbVertex
100
AcDb2dVertex
 10
89.00008000162151
 20
-66.34978296952367
 30
0.0
  0
SEQEND
  5
7C
330
77
100
AcDbEntity
  8
sideviews
370
    35
  0
POLYLINE
  5
7D
330
1F
100
AcDbEntity
  8
sideviews
 62
     1
370
    35
100
AcDb2dPolyline
 66
     1
 10
0.0
 20
0.0
 30
0.0
  0
VERTEX
  5
7E
330
7D
100
AcDbEntity
  8
sideviews
 62
     1
370
    35
100
AcDbVertex
100
AcDb2dVertex
 10
132.0069294917378
 20
-35.65639376278729
 30
0.0
  0
VERTEX
  5
7F
330
7D
100
AcDbEntity
  8
sideviews
 62
     1
370
    35
100
AcDbVertex
100
AcDb2dVertex
 10
148.9998629727327
 20
-17.34984537326671
 30
0.0
  0
SEQEND
  5
80
330
7D
100
AcDbEntity
  8
sideviews
370
    35
  0
POLYLINE
  5
81
330
1F
100
AcDbEntity
  8
sideviews
 62
     1
370
    35
100
AcDb2dPolyline
 66
     1
 10
0.0
 20
0.0
 30
0.0
  0
VERTEX
  5
82
330
81
100
AcDbEntity
  8
sideviews
 62
     1
370
    35
100
AcDbVertex
100
AcDb2dVertex
 10
474.0000080195209
 20
-58.60004067545416
 30
0.0
  0
VERTEX
  5
83
330
81
100
AcDbEntity
  8
sideviews
 62
     1
370
    35
100
AcDbVertex
100
AcDb2dVertex
 10
474.0000080195209
 20
-57.10004610117638
 30
0.0
  0
VERTEX
  5
84
330
81
100
AcDbEntity
  8
sideviews
 62
     1
370
    35
100
AcDbVertex
100
AcDb2dVertex
 10
493.9998208400417
 20
-57.10004610117638
 30
0.0
  0
VERTEX
  5
85
330
81
100
AcDbEntity
  8
sideviews
 62
     1
370
    35
100
AcDbVertex
100
AcDb2dVertex
 10
493.9998208400417
 20
-58.60004067545416
 30
0.0
  0
VERTEX
  5
86
330
81
100
AcDbEntity
  8
sideviews
 62
     1
370
    35
100
AcDbVertex
100
AcDb2dVertex
 10
474.0000080195209
 20
-58.60004067545416
 30
0.0
  0
SEQEND
  5
87
330
81
100
AcDbEntity
  8
sideviews
370
    35
  0
SPLINE
  5
88
330
1F
100
AcDbEntity
  8
sideviews
 62
     1
370
    35
100
AcDbSpline
210
0.0
220
0.0
230
1.0
 70
     8
 71
     3
 72
     8
 73
     4
 74
     0
 42
0.0000000001
 43
0.0000000001
 40
0.0
 40
0.0
 40
0.0
 40
0.0
 40
1.0
 40
1.0
 40
1.0
 40
1.0
 10
577.9519746819009
 20
-66.18682995307135
 30
0.0
 10
580.1864636136339
 20
-66.18682995307135
 30
0.0
 10
581.9972058006813
 20
-64.38435599518864
 30
0.0
 10
581.9972058006813
 20
-62.38688963284078
 30
0.0
  0
POLYLINE
  5
89
330
1F
100
AcDbEntity
  8
sideviews
 62
     1
370
    35
100
AcDb2dPolyline
 66
     1
 10
0.0
 20
0.0
 30
0.0
  0
VERTEX
  5
8A
330
89
100
AcDbEntity
  8
sideviews
 62
     1
370
    35
100
AcDbVertex
100
AcDb2dVertex
 10
581.9965167815842
 20
-50.85167641957875
 30
0.0
  0
VERTEX
  5
8B
330
89
100
AcDbEntity
  8
sideviews
 62
     1
370
    35
100
AcDbVertex
100
AcDb2dVertex
 10
581.9965167815842
 20
-62.38688963284078
 30
0.0
  0
SEQEND
  5
8C
330
89
100
AcDbEntity
  8
sideviews
370
    35
  0
POLYLINE
  5
8D
330
1F
100
AcDbEntity
  8
sideviews
 62
     1
370
    35
100
AcDb2dPolyline
 66
     1
 10
0.0
 20
0.0
 30
0.0
  0
VERTEX
  5
8E
330
8D
100
AcDbEntity
  8
sideviews
 62
     1
370
    35
100
AcDbVertex
100
AcDb2dVertex
 10
556.9937362973835
 20
-61.31959905151038
 30
0.0
  0
VERTEX
  5
8F
330
8D
100
AcDbEntity
  8
sideviews
 62
     1
370
    35
100
AcDbVertex
100
AcDb2dVertex
 10
556.9971813928688
 20
-60.27332355264001
 30
0.0
  0
SEQEND
  5
90
330
8D
100
AcDbEntity
  8
sideviews
370
    35
  0
POLYLINE
  5
91
330
1F
100
AcDbEntity
  8
sideviews
 62
     1
370
    35
100
AcDb2dPolyline
 66
     1
 10
0.0
 20
0.0
 30
0.0
  0
VERTEX
  5
92
330
91
100
AcDbEntity
  8
sideviews
 62
     1
370
    35
100
AcDbVertex
100
AcDb2dVertex
 10
497.0001544981458
 20
-66.34978296952367
 30
0.0
  0
VERTEX
  5
93
330
91
100
AcDbEntity
  8
sideviews
 62
     1
370
    35
100
AcDbVertex
100
AcDb2dVertex
 10
497.0001544981458
 20
-65.2098008734545
 30
0.0
  0
SEQEND
  5
94
330
91
100
AcDbEntity
  8
sideviews
370
    35
  0
POLYLINE
  5
95
330
1F
100
AcDbEntity
  8
sideviews
 62
     1
370
    35
100
AcDb2dPolyline
 66
     1
 10
0.0
 20
0.0
 30
0.0
  0
VERTEX
  5
96
330
95
100
AcDbEntity
  8
sideviews
 62
     1
370
    35
100
AcDbVertex
100
AcDb2dVertex
 10
577.9519746819009
 20
-66.34840493132957
 30
0.0
  0
VERTEX
  5
97
330
95
100
AcDbEntity
  8
sideviews
 62
     1
370
    35
100
AcDbVertex
100
AcDb2dVertex
 10
525.877633874607
 20
-66.35150551726629
 30
0.0
  0
SEQEND
  5
98
330
95
100
AcDbEntity
  8
sideviews
370
    35
  0
POLYLINE
  5
99
330
1F
100
AcDbEntity
  8
sideviews
 62
     1
370
    35
100
AcDb2dPolyline
 66
     1
 10
0.0
 20
0.0
 30
0.0
  0
VERTEX
  5
9A
330
99
100
AcDbEntity
  8
sideviews
 62
     1
370
    35
100
AcDbVertex
100
AcDb2dVertex
 10
525.877633874607
 20
-66.18993053900807
 30
0.0
  0
VERTEX
  5
9B
330
99
100
AcDbEntity
  8
sideviews
 62
     1
370
    35
100
AcDbVertex
100
AcDb2dVertex
 10
525.877633874607
 20
-64.26894529643276
 30
0.0
  0
SEQEND
  5
9C
330
99
100
AcDbEntity
  8
sideviews
370
    35
  0
SPLINE
  5
9D
330
1F
100
AcDbEntity
  8
sideviews
 62
     1
370
    35
100
AcDbSpline
210
0.0
220
0.0
230
1.0
 70
     8
 71
     3
 72
     8
 73
     4
 74
     0
 42
0.0000000001
 43
0.0000000001
 40
0.0
 40
0.0
 40
0.0
 40
0.0
 40
1.0
 40
1.0
 40
1.0
 40
1.0
 10
581.9965167815842
 20
-50.85167641957875
 30
0.0
 10
575.3419703422757
 20
-55.55147568055658
 30
0.0
 10
566.9679767462789
 20
-58.98279078386542
 30
0.0
 10
556.9937362973835
 20
-61.31959905151038
 30
0.0
  0
SPLINE
  5
9E
330
1F
100
AcDbEntity
  8
sideviews
 62
     1
370
    35
100
AcDbSpline
210
0.0
220
0.0
230
1.0
 70
     8
 71
     3
 72
     8
 73
     4
 74
     0
 42
0.0000000001
 43
0.0000000001
 40
0.0
 40
0.0
 40
0.0
 40
0.0
 40
1.0
 40
1.0
 40
1.0
 40
1.0
 10
497.0001544981458
 20
-65.2098008734545
 30
0.0
 10
504.9100937322794
 20
-65.32348902446775
 30
0.0
 10
511.2914440996077
 20
-65.2098008734545
 30
0.0
 10
525.877633874607
 20
-64.26894529643276
 30
0.0
  0
SPLINE
  5
9F
330
1F
100
AcDbEntity
  8
sideviews
 62
     1
370
    35
100
AcDbSpline
210
0.0
220
0.0
230
1.0
 70
     8
 71
     3
 72
     8
 73
     4
 74
     0
 42
0.0000000001
 43
0.0000000001
 40
0.0
 40
0.0
 40
0.0
 40
0.0
 40
1.0
 40
1.0
 40
1.0
 40
1.0
 10
581.9999618770695
 20
-49.80540092070837
 30
0.0
 10
575.345415437761
 20
-54.50520018168621
 30
0.0
 10
566.9714218417641
 20
-57.93651528499504
 30
0.0
 10
556.9971813928688
 20
-60.27332355264001
 30
0.0
  0
SPLINE
  5
A0
330
1F
100
AcDbEntity
  8
sideviews
 62
     1
370
    35
100
AcDbSpline
210
0.0
220
0.0
230
1.0
 70
     8
 71
     3
 72
     8
 73
     4
 74
     0
 42
0.0000000001
 43
0.0000000001
 40
0.0
 40
0.0
 40
0.0
 40
0.0
 40
1.0
 40
1.0
 40
1.0
 40
1.0
 10
14.95533175624381
 20
-45.99753688086173
 30
0.0
 10
12.15481363628421
 20
-46.6824218633294
 30
0.0
 10
11.68696966938729
 20
-47.82378199759267
 30
0.0
 10
11.68696966938729
 20
-49.65037162387213
 30
0.0
  0
POLYLINE
  5
A1
330
1F
100
AcDbEntity
  8
sideviews
 62
     1
370
    35
100
AcDb2dPolyline
 66
     1
 10
0.0
 20
0.0
 30
0.0
  0
VERTEX
  5
A2
330
A1
100
AcDbEntity
  8
sideviews
 62
     1
370
    35
100
AcDbVertex
100
AcDb2dVertex
 10
148.9998629727327
 20
-17.34984537326671
 30
0.0
  0
VERTEX
  5
A3
330
A1
100
AcDbEntity
  8
sideviews
 62
     1
370
    35
100
AcDbVertex
100
AcDb2dVertex
 10
167.5000257285243
 20
-13.30737033087455
 30
0.0
  0
SEQEND
  5
A4
330
A1
100
AcDbEntity
  8
sideviews
370
    35
  0
SPLINE
  5
A5
330
1F
100
AcDbEntity
  8
sideviews
 62
     1
370
    35
100
AcDbSpline
210
0.0
220
0.0
230
1.0
 70
     8
 71
     3
 72
    11
 73
     7
 74
     0
 42
0.0000000001
 43
0.0000000001
 40
0.0
 40
0.0
 40
0.0
 40
0.0
 40
1.0
 40
1.0
 40
1.0
 40
2.0
 40
2.0
 40
2.0
 40
2.0
 10
148.9998629727327
 20
-39.84873045878782
 30
0.0
 10
148.9998629727327
 20
-45.37121852164331
 30
0.0
 10
153.4769368105891
 20
-49.34995929755834
 30
0.0
 10
159.0001138925416
 20
-49.34995929755834
 30
0.0
 10
164.5226019553971
 20
-49.34995929755834
 30
0.0
 10
169.0000203028021
 20
-45.37121852164331
 30
0.0
 10
169.0000203028021
 20
-39.84873045878782
 30
0.0
  0
POLYLINE
  5
A6
330
1F
100
AcDbEntity
  8
sideviews
 62
     1
370
    35
100
AcDb2dPolyline
 66
     1
 10
0.0
 20
0.0
 30
0.0
  0
VERTEX
  5
A7
330
A6
100
AcDbEntity
  8
sideviews
 62
     1
370
    35
100
AcDbVertex
100
AcDb2dVertex
 10
11.68696966938729
 20
-51.15415580318368
 30
0.0
  0
VERTEX
  5
A8
330
A6
100
AcDbEntity
  8
sideviews
 62
     1
370
    35
100
AcDbVertex
100
AcDb2dVertex
 10
29.88844264660775
 20
-51.15415580318368
 30
0.0
  0
VERTEX
  5
A9
330
A6
100
AcDbEntity
  8
sideviews
 62
     1
370
    35
100
AcDbVertex
100
AcDb2dVertex
 10
29.88844264660775
 20
-49.65037162387213
 30
0.0
  0
VERTEX
  5
AA
330
A6
100
AcDbEntity
  8
sideviews
 62
     1
370
    35
100
AcDbVertex
100
AcDb2dVertex
 10
11.68696966938729
 20
-49.65037162387213
 30
0.0
  0
SEQEND
  5
AB
330
A6
100
AcDbEntity
  8
sideviews
370
    35
  0
POLYLINE
  5
AC
330
1F
100
AcDbEntity
  8
sideviews
 62
     1
370
    35
100
AcDb2dPolyline
 66
     1
 10
0.0
 20
0.0
 30
0.0
  0
VERTEX
  5
AD
330
AC
100
AcDbEntity
  8
sideviews
 62
     1
370
    35
100
AcDbVertex
100
AcDb2dVertex
 10
11.68696966938729
 20
-66.34978296952367
 30
0.0
  0
VERTEX
  5
AE
330
AC
100
AcDbEntity
  8
sideviews
 62
     1
370
    35
100
AcDbVertex
100
AcDb2dVertex
 10
11.68696966938729
 20
-51.15381129363516
 30
0.0
  0
SEQEND
  5
AF
330
AC
100
AcDbEntity
  8
sideviews
370
    35
  0
POLYLINE
  5
B0
330
1F
100
AcDbEntity
  8
sideviews
 62
     1
370
    35
100
AcDb2dPolyline
 66
     1
 10
0.0
 20
0.0
 30
0.0
  0
VERTEX
  5
B1
330
B0
100
AcDbEntity
  8
sideviews
 62
     1
370
    35
100
AcDbVertex
100
AcDb2dVertex
 10
14.95533175624381
 20
-45.99753688086173
 30
0.0
  0
VERTEX
  5
B2
330
B0
100
AcDbEntity
  8
sideviews
 62
     1
370
    35
100
AcDbVertex
100
AcDb2dVertex
 10
97.38527015794536
 20
-28.47268065694433
 30
0.0
  0
SEQEND
  5
B3
330
B0
100
AcDbEntity
  8
sideviews
370
    35
  0
POLYLINE
  5
B4
330
1F
100
AcDbEntity
  8
sideviews
 62
     1
370
    35
100
AcDb2dPolyline
 66
     1
 10
0.0
 20
0.0
 30
0.0
  0
VERTEX
  5
B5
330
B4
100
AcDbEntity
  8
sideviews
 62
     1
370
    35
100
AcDbVertex
100
AcDb2dVertex
 10
411.2500053225347
 20
-42.85009764553747
 30
0.0
  0
VERTEX
  5
B6
330
B4
100
AcDbEntity
  8
sideviews
 62
     1
370
    35
100
AcDbVertex
100
AcDb2dVertex
 10
412.7499998968125
 20
-42.85009764553747
 30
0.0
  0
SEQEND
  5
B7
330
B4
100
AcDbEntity
  8
sideviews
370
    35
  0
SPLINE
  5
B8
330
1F
100
AcDbEntity
  8
sideviews
 62
     1
370
    35
100
AcDbSpline
210
0.0
220
0.0
230
1.0
 70
     8
 71
     3
 72
    11
 73
     7
 74
     0
 42
0.0000000001
 43
0.0000000001
 40
0.0
 40
0.0
 40
0.0
 40
0.0
 40
1.0
 40
1.0
 40
1.0
 40
2.0
 40
2.0
 40
2.0
 40
2.0
 10
169.0000203028021
 20
-39.84873045878782
 30
0.0
 10
169.0000203028021
 20
-34.32555337683528
 30
0.0
 10
164.5226019553971
 20
-29.34980196748894
 30
0.0
 10
159.0001138925416
 20
-29.34980196748894
 30
0.0
 10
153.4769368105891
 20
-29.34980196748894
 30
0.0
 10
148.9998629727327
 20
-34.32555337683528
 30
0.0
 10
148.9998629727327
 20
-39.84873045878782
 30
0.0
  0
SPLINE
  5
B9
330
1F
100
AcDbEntity
  8
sideviews
 62
     1
370
    35
100
AcDbSpline
210
0.0
220
0.0
230
1.0
 70
     8
 71
     3
 72
    11
 73
     7
 74
     0
 42
0.0000000001
 43
0.0000000001
 40
0.0
 40
0.0
 40
0.0
 40
0.0
 40
1.0
 40
1.0
 40
1.0
 40
2.0
 40
2.0
 40
2.0
 40
2.0
 10
500.9999103565209
 20
-39.37089571498367
 30
0.0
 10
500.9999103565209
 20
-31.06614853824041
 30
0.0
 10
507.7922606152395
 20
-24.33580999825633
 30
0.0
 10
516.1679767589789
 20
-24.33580999825633
 30
0.0
 10
524.5447264313639
 20
-24.33580999825633
 30
0.0
 10
531.3356986518884
 20
-31.06614853824041
 30
0.0
 10
531.3356986518884
 20
-39.37089571498367
 30
0.0
  0
SPLINE
  5
BA
330
1F
100
AcDbEntity
  8
sideviews
 62
     1
370
    35
100
AcDbSpline
210
0.0
220
0.0
230
1.0
 70
     8
 71
     3
 72
    11
 73
     7
 74
     0
 42
0.0000000001
 43
0.0000000001
 40
0.0
 40
0.0
 40
0.0
 40
0.0
 40
1.0
 40
1.0
 40
1.0
 40
2.0
 40
2.0
 40
2.0
 40
2.0
 10
531.3356986518884
 20
-39.37089571498367
 30
0.0
 10
531.3356986518884
 20
-47.67460936308135
 30
0.0
 10
524.5447264313639
 20
-54.40632594125953
 30
0.0
 10
516.1679767589789
 20
-54.40632594125953
 30
0.0
 10
507.7915715961424
 20
-54.40632594125953
 30
0.0
 10
500.9999103565209
 20
-47.67460936308135
 30
0.0
 10
500.9999103565209
 20
-39.37089571498367
 30
0.0
  0
SPLINE
  5
BB
330
1F
100
AcDbEntity
  8
sideviews
 62
     1
370
    35
100
AcDbSpline
210
0.0
220
0.0
230
1.0
 70
     8
 71
     3
 72
    11
 73
     7
 74
     0
 42
0.0000000001
 43
0.0000000001
 40
0.0
 40
0.0
 40
0.0
 40
0.0
 40
1.0
 40
1.0
 40
1.0
 40
2.0
 40
2.0
 40
2.0
 40
2.0
 10
539.7641247565521
 20
-39.37089571498367
 30
0.0
 10
539.7641247565521
 20
-32.46726887209152
 30
0.0
 10
545.361026881889
 20
-26.87036674675463
 30
0.0
 10
552.2649982343296
 20
-26.87036674675463
 30
0.0
 10
559.1675915485762
 20
-26.87036674675463
 30
0.0
 10
564.7648381834616
 20
-32.46726887209152
 30
0.0
 10
564.7648381834616
 20
-39.37089571498367
 30
0.0
  0
SPLINE
  5
BC
330
1F
100
AcDbEntity
  8
sideviews
 62
     1
370
    35
100
AcDbSpline
210
0.0
220
0.0
230
1.0
 70
     8
 71
     3
 72
    11
 73
     7
 74
     0
 42
0.0000000001
 43
0.0000000001
 40
0.0
 40
0.0
 40
0.0
 40
0.0
 40
1.0
 40
1.0
 40
1.0
 40
2.0
 40
2.0
 40
2.0
 40
2.0
 10
564.7648381834616
 20
-39.37089571498367
 30
0.0
 10
564.7648381834616
 20
-46.27417804832729
 30
0.0
 10
559.1675915485762
 20
-51.87108017366418
 30
0.0
 10
552.2649982343296
 20
-51.87108017366418
 30
0.0
 10
545.361026881889
 20
-51.87108017366418
 30
0.0
 10
539.7641247565521
 20
-46.27417804832729
 30
0.0
 10
539.7641247565521
 20
-39.37089571498367
 30
0.0
  0
POLYLINE
  5
BD
330
1F
100
AcDbEntity
  8
sideviews
 62
     1
370
    35
100
AcDb2dPolyline
 66
     1
 10
0.0
 20
0.0
 30
0.0
  0
VERTEX
  5
BE
330
BD
100
AcDbEntity
  8
sideviews
 62
     1
370
    35
100
AcDbVertex
100
AcDb2dVertex
 10
493.2501680624514
 20
-25.34970159956535
 30
0.0
  0
VERTEX
  5
BF
330
BD
100
AcDbEntity
  8
sideviews
 62
     1
370
    35
100
AcDbVertex
100
AcDb2dVertex
 10
494.7501626367292
 20
-25.34970159956535
 30
0.0
  0
VERTEX
  5
C0
330
BD
100
AcDbEntity
  8
sideviews
 62
     1
370
    35
100
AcDbVertex
100
AcDb2dVertex
 10
494.7501626367292
 20
-45.34985892963476
 30
0.0
  0
VERTEX
  5
C1
330
BD
100
AcDbEntity
  8
sideviews
 62
     1
370
    35
100
AcDbVertex
100
AcDb2dVertex
 10
493.2501680624514
 20
-45.34985892963476
 30
0.0
  0
SEQEND
  5
C2
330
BD
100
AcDbEntity
  8
sideviews
370
    35
  0
POLYLINE
  5
C3
330
1F
100
AcDbEntity
  8
sideviews
 62
     1
370
    35
100
AcDb2dPolyline
 66
     1
 10
0.0
 20
0.0
 30
0.0
  0
VERTEX
  5
C4
330
C3
100
AcDbEntity
  8
sideviews
 62
     1
370
    35
100
AcDbVertex
100
AcDb2dVertex
 10
432.000159939743
 20
-0.9999389645937653
 30
0.0
  0
VERTEX
  5
C5
330
C3
100
AcDbEntity
  8
sideviews
 62
     1
370
    35
100
AcDbVertex
100
AcDb2dVertex
 10
390.8843233614803
 20
-45.99546982357058
 30
0.0
  0
SEQEND
  5
C6
330
C3
100
AcDbEntity
  8
sideviews
370
    35
  0
POLYLINE
  5
C7
330
1F
100
AcDbEntity
  8
sideviews
 62
     1
370
    35
100
AcDb2dPolyline
 66
     1
 10
0.0
 20
0.0
 30
0.0
  0
VERTEX
  5
C8
330
C7
100
AcDbEntity
  8
sideviews
 62
     1
370
    35
100
AcDbVertex
100
AcDb2dVertex
 10
97.38527015794536
 20
-28.47268065694433
 30
0.0
  0
VERTEX
  5
C9
330
C7
100
AcDbEntity
  8
sideviews
 62
     1
370
    35
100
AcDbVertex
100
AcDb2dVertex
 10
119.8726141735909
 20
-35.65639376278729
 30
0.0
  0
SEQEND
  5
CA
330
C7
100
AcDbEntity
  8
sideviews
370
    35
  0
POLYLINE
  5
CB
330
1F
100
AcDbEntity
  8
sideviews
 62
     1
370
    35
100
AcDb2dPolyline
 66
     1
 10
0.0
 20
0.0
 30
0.0
  0
VERTEX
  5
CC
330
CB
100
AcDbEntity
  8
sideviews
 62
     1
370
    35
100
AcDbVertex
100
AcDb2dVertex
 10
96.62700464164186
 20
-38.6239990137815
 30
0.0
  0
VERTEX
  5
CD
330
CB
100
AcDbEntity
  8
sideviews
 62
     1
370
    35
100
AcDbVertex
100
AcDb2dVertex
 10
98.14370792902311
 20
-38.6239990137815
 30
0.0
  0
SEQEND
  5
CE
330
CB
100
AcDbEntity
  8
sideviews
370
    35
  0
POLYLINE
  5
CF
330
1F
100
AcDbEntity
  8
sideviews
 62
     1
370
    35
100
AcDb2dPolyline
 66
     1
 10
0.0
 20
0.0
 30
0.0
  0
VERTEX
  5
D0
330
CF
100
AcDbEntity
  8
sideviews
 62
     1
370
    35
100
AcDbVertex
100
AcDb2dVertex
 10
176.4831122063133
 20
-30.83188204524342
 30
0.0
  0
VERTEX
  5
D1
330
CF
100
AcDbEntity
  8
sideviews
 62
     1
370
    35
100
AcDbVertex
100
AcDb2dVertex
 10
177.9999877484688
 20
-30.83188204524342
 30
0.0
  0
SEQEND
  5
D2
330
CF
100
AcDbEntity
  8
sideviews
370
    35
  0
SPLINE
  5
D3
330
1F
100
AcDbEntity
  8
sideviews
 62
     1
370
    35
100
AcDbSpline
210
0.0
220
0.0
230
1.0
 70
    11
 71
     3
 72
    29
 73
    25
 74
     0
 42
0.0000000001
 43
0.0000000001
 40
0.0
 40
0.0
 40
0.0
 40
0.0
 40
1.0
 40
1.0
 40
1.0
 40
2.0
 40
2.0
 40
2.0
 40
3.0
 40
3.0
 40
3.0
 40
4.0
 40
4.0
 40
4.0
 40
5.0
 40
5.0
 40
5.0
 40
6.0
 40
6.0
 40
6.0
 40
7.0
 40
7.0
 40
7.0
 40
8.0
 40
8.0
 40
8.0
 40
8.0
 10
463.3071206524024
 20
-32.34944660649597
 30
0.0
 10
463.3071206524024
 20
-33.20589734412908
 30
0.0
 10
462.6025986256688
 20
-33.8997395748584
 30
0.0
 10
461.7340900538373
 20
-33.8997395748584
 30
0.0
 10
461.7340900538373
 20
-33.8997395748584
 30
0.0
 10
428.5729789510165
 20
-33.8997395748584
 30
0.0
 10
428.5729789510165
 20
-33.8997395748584
 30
0.0
 10
427.703781360088
 20
-33.8997395748584
 30
0.0
 10
426.9999483524514
 20
-33.20589734412908
 30
0.0
 10
426.9999483524514
 20
-32.34944660649597
 30
0.0
 10
426.9999483524514
 20
-32.34944660649597
 30
0.0
 10
426.9999483524514
 20
-32.34944660649597
 30
0.0
 10
426.9999483524514
 20
-32.34944660649597
 30
0.0
 10
426.9999483524514
 20
-31.49368488795991
 30
0.0
 10
427.703781360088
 20
-30.7998426572306
 30
0.0
 10
428.5729789510165
 20
-30.7998426572306
 30
0.0
 10
428.5729789510165
 20
-30.7998426572306
 30
0.0
 10
461.7340900538373
 20
-30.7998426572306
 30
0.0
 10
461.7340900538373
 20
-30.7998426572306
 30
0.0
 10
462.6025986256688
 20
-30.7998426572306
 30
0.0
 10
463.3071206524024
 20
-31.49368488795991
 30
0.0
 10
463.3071206524024
 20
-32.34944660649597
 30
0.0
 10
463.3071206524024
 20
-32.34944660649597
 30
0.0
 10
463.3071206524024
 20
-32.34944660649597
 30
0.0
 10
463.3071206524024
 20
-32.34944660649597
 30
0.0
  0
SPLINE
  5
D4
330
1F
100
AcDbEntity
  8
sideviews
 62
     1
370
    35
100
AcDbSpline
210
0.0
220
0.0
230
1.0
 70
     8
 71
     3
 72
     8
 73
     4
 74
     0
 42
0.0000000001
 43
0.0000000001
 40
0.0
 40
0.0
 40
0.0
 40
0.0
 40
1.0
 40
1.0
 40
1.0
 40
1.0
 10
436.9814235018658
 20
-48.34915905909327
 30
0.0
 10
433.6386473525279
 20
-48.34915905909327
 30
0.0
 10
430.9301132820244
 20
-46.00580511002633
 30
0.0
 10
430.9301132820244
 20
-43.11536999790172
 30
0.0
  0
POLYLINE
  5
D5
330
1F
100
AcDbEntity
  8
sideviews
 62
     1
370
    35
100
AcDb2dPolyline
 66
     1
 10
0.0
 20
0.0
 30
0.0
  0
VERTEX
  5
D6
330
D5
100
AcDbEntity
  8
sideviews
 62
     1
370
    35
100
AcDbVertex
100
AcDb2dVertex
 10
462.9484862123879
 20
-48.34915905909327
 30
0.0
  0
VERTEX
  5
D7
330
D5
100
AcDbEntity
  8
sideviews
 62
     1
370
    35
100
AcDbVertex
100
AcDb2dVertex
 10
436.9814235018658
 20
-48.34915905909327
 30
0.0
  0
SEQEND
  5
D8
330
D5
100
AcDbEntity
  8
sideviews
370
    35
  0
SPLINE
  5
D9
330
1F
100
AcDbEntity
  8
sideviews
 62
     1
370
    35
100
AcDbSpline
210
0.0
220
0.0
230
1.0
 70
     8
 71
     3
 72
    14
 73
    10
 74
     0
 42
0.0000000001
 43
0.0000000001
 40
0.0
 40
0.0
 40
0.0
 40
0.0
 40
1.0
 40
1.0
 40
1.0
 40
2.0
 40
2.0
 40
2.0
 40
3.0
 40
3.0
 40
3.0
 40
3.0
 10
462.9484862123879
 20
-36.34989148396809
 30
0.0
 10
466.2905733426288
 20
-36.34989148396809
 30
0.0
 10
468.9997964322292
 20
-38.69221190438945
 30
0.0
 10
468.9997964322292
 20
-41.58230250696554
 30
0.0
 10
468.9997964322292
 20
-41.58230250696554
 30
0.0
 10
468.9997964322292
 20
-43.11536999790172
 30
0.0
 10
468.9997964322292
 20
-43.11536999790172
 30
0.0
 10
468.9997964322292
 20
-46.00580511002633
 30
0.0
 10
466.2905733426288
 20
-48.34915905909327
 30
0.0
 10
462.9484862123879
 20
-48.34915905909327
 30
0.0
  0
POLYLINE
  5
DA
330
1F
100
AcDbEntity
  8
sideviews
 62
     1
370
    35
100
AcDb2dPolyline
 66
     1
 10
0.0
 20
0.0
 30
0.0
  0
VERTEX
  5
DB
330
DA
100
AcDbEntity
  8
sideviews
 62
     1
370
    35
100
AcDbVertex
100
AcDb2dVertex
 10
436.7640379767465
 20
-36.35368108900186
 30
0.0
  0
VERTEX
  5
DC
330
DA
100
AcDbEntity
  8
sideviews
 62
     1
370
    35
100
AcDbVertex
100
AcDb2dVertex
 10
462.9484862123879
 20
-36.34989148396809
 30
0.0
  0
SEQEND
  5
DD
330
DA
100
AcDbEntity
  8
sideviews
370
    35
  0
SPLINE
  5
DE
330
1F
100
AcDbEntity
  8
sideviews
 62
     1
370
    35
100
AcDbSpline
210
0.0
220
0.0
230
1.0
 70
     8
 71
     3
 72
     8
 73
     4
 74
     0
 42
0.0000000001
 43
0.0000000001
 40
0.0
 40
0.0
 40
0.0
 40
0.0
 40
1.0
 40
1.0
 40
1.0
 40
1.0
 10
430.9301132820244
 20
-41.58230250696554
 30
0.0
 10
430.9301132820244
 20
-38.69221190438945
 30
0.0
 10
433.6386473525279
 20
-36.34989148396809
 30
0.0
 10
436.9814235018658
 20
-36.34989148396809
 30
0.0
  0
POLYLINE
  5
DF
330
1F
100
AcDbEntity
  8
sideviews
 62
     1
370
    35
100
AcDb2dPolyline
 66
     1
 10
0.0
 20
0.0
 30
0.0
  0
VERTEX
  5
E0
330
DF
100
AcDbEntity
  8
sideviews
 62
     1
370
    35
100
AcDbVertex
100
AcDb2dVertex
 10
430.9301132820244
 20
-43.11536999790172
 30
0.0
  0
VERTEX
  5
E1
330
DF
100
AcDbEntity
  8
sideviews
 62
     1
370
    35
100
AcDbVertex
100
AcDb2dVertex
 10
430.9301132820244
 20
-41.58230250696554
 30
0.0
  0
SEQEND
  5
E2
330
DF
100
AcDbEntity
  8
sideviews
370
    35
  0
SPLINE
  5
E3
330
1F
100
AcDbEntity
  8
sideviews
 62
     1
370
    35
100
AcDbSpline
210
0.0
220
0.0
230
1.0
 70
    11
 71
     3
 72
    29
 73
    25
 74
     0
 42
0.0000000001
 43
0.0000000001
 40
0.0
 40
0.0
 40
0.0
 40
0.0
 40
1.0
 40
1.0
 40
1.0
 40
2.0
 40
2.0
 40
2.0
 40
3.0
 40
3.0
 40
3.0
 40
4.0
 40
4.0
 40
4.0
 40
5.0
 40
5.0
 40
5.0
 40
6.0
 40
6.0
 40
6.0
 40
7.0
 40
7.0
 40
7.0
 40
8.0
 40
8.0
 40
8.0
 40
8.0
 10
466.011865117872
 20
-52.35029295566243
 30
0.0
 10
466.011865117872
 20
-53.20605467419849
 30
0.0
 10
465.2439533342099
 20
-53.89989690492781
 30
0.0
 10
464.2968965853147
 20
-53.89989690492781
 30
0.0
 10
464.2968965853147
 20
-53.89989690492781
 30
0.0
 10
438.479695528401
 20
-53.89989690492781
 30
0.0
 10
438.479695528401
 20
-53.89989690492781
 30
0.0
 10
437.5326387795058
 20
-53.89989690492781
 30
0.0
 10
436.7640379767465
 20
-53.20605467419849
 30
0.0
 10
436.7640379767465
 20
-52.35029295566243
 30
0.0
 10
436.7640379767465
 20
-52.35029295566243
 30
0.0
 10
436.7640379767465
 20
-52.35029295566243
 30
0.0
 10
436.7640379767465
 20
-52.35029295566243
 30
0.0
 10
436.7640379767465
 20
-51.49384221802932
 30
0.0
 10
437.5326387795058
 20
-50.79931096820295
 30
0.0
 10
438.479695528401
 20
-50.79931096820295
 30
0.0
 10
438.479695528401
 20
-50.79931096820295
 30
0.0
 10
464.2968965853147
 20
-50.79931096820295
 30
0.0
 10
464.2968965853147
 20
-50.79931096820295
 30
0.0
 10
465.2439533342099
 20
-50.79931096820295
 30
0.0
 10
466.011865117872
 20
-51.49384221802932
 30
0.0
 10
466.011865117872
 20
-52.35029295566243
 30
0.0
 10
466.011865117872
 20
-52.35029295566243
 30
0.0
 10
466.011865117872
 20
-52.35029295566243
 30
0.0
 10
466.011865117872
 20
-52.35029295566243
 30
0.0
  0
POLYLINE
  5
E4
330
1F
100
AcDbEntity
  8
sideviews
 62
     1
370
    35
100
AcDb2dPolyline
 66
     1
 10
0.0
 20
0.0
 30
0.0
  0
VERTEX
  5
E5
330
E4
100
AcDbEntity
  8
sideviews
 62
     1
370
    35
100
AcDbVertex
100
AcDb2dVertex
 10
144.036341652359
 20
-56.35004881403749
 30
0.0
  0
VERTEX
  5
E6
330
E4
100
AcDbEntity
  8
sideviews
 62
     1
370
    35
100
AcDbVertex
100
AcDb2dVertex
 10
144.036341652359
 20
-54.85005423975971
 30
0.0
  0
SEQEND
  5
E7
330
E4
100
AcDbEntity
  8
sideviews
370
    35
  0
POLYLINE
  5
E8
330
1F
100
AcDbEntity
  8
sideviews
 62
     1
370
    35
100
AcDb2dPolyline
 66
     1
 10
0.0
 20
0.0
 30
0.0
  0
VERTEX
  5
E9
330
E8
100
AcDbEntity
  8
sideviews
 62
     1
370
    35
100
AcDbVertex
100
AcDb2dVertex
 10
173.9998873805452
 20
-54.85005423975971
 30
0.0
  0
VERTEX
  5
EA
330
E8
100
AcDbEntity
  8
sideviews
 62
     1
370
    35
100
AcDbVertex
100
AcDb2dVertex
 10
173.9998873805452
 20
-56.35004881403749
 30
0.0
  0
SEQEND
  5
EB
330
E8
100
AcDbEntity
  8
sideviews
370
    35
  0
POLYLINE
  5
EC
330
1F
100
AcDbEntity
  8
sideviews
 62
     1
370
    35
100
AcDb2dPolyline
 66
     1
 10
0.0
 20
0.0
 30
0.0
  0
VERTEX
  5
ED
330
EC
100
AcDbEntity
  8
sideviews
 62
     1
370
    35
100
AcDbVertex
100
AcDb2dVertex
 10
164.0313313392005
 20
-54.85005423975971
 30
0.0
  0
VERTEX
  5
EE
330
EC
100
AcDbEntity
  8
sideviews
 62
     1
370
    35
100
AcDbVertex
100
AcDb2dVertex
 10
163.9999809702847
 20
-56.35004881403749
 30
0.0
  0
SEQEND
  5
EF
330
EC
100
AcDbEntity
  8
sideviews
370
    35
  0
POLYLINE
  5
F0
330
1F
100
AcDbEntity
  8
sideviews
 62
     1
370
    35
100
AcDb2dPolyline
 66
     1
 10
0.0
 20
0.0
 30
0.0
  0
VERTEX
  5
F1
330
F0
100
AcDbEntity
  8
sideviews
 62
     1
370
    35
100
AcDbVertex
100
AcDb2dVertex
 10
153.9878444710517
 20
-56.35004881403749
 30
0.0
  0
VERTEX
  5
F2
330
F0
100
AcDbEntity
  8
sideviews
 62
     1
370
    35
100
AcDbVertex
100
AcDb2dVertex
 10
153.9878444710517
 20
-54.85005423975971
 30
0.0
  0
SEQEND
  5
F3
330
F0
100
AcDbEntity
  8
sideviews
370
    35
  0
POLYLINE
  5
F4
330
1F
100
AcDbEntity
  8
sideviews
 62
     1
370
    35
100
AcDb2dPolyline
 66
     1
 10
0.0
 20
0.0
 30
0.0
  0
VERTEX
  5
F5
330
F4
100
AcDbEntity
  8
sideviews
 62
     1
370
    35
100
AcDbVertex
100
AcDb2dVertex
 10
143.9999958949896
 20
-54.85005423975971
 30
0.0
  0
VERTEX
  5
F6
330
F4
100
AcDbEntity
  8
sideviews
 62
     1
370
    35
100
AcDbVertex
100
AcDb2dVertex
 10
153.9878444710517
 20
-54.85005423975971
 30
0.0
  0
SEQEND
  5
F7
330
F4
100
AcDbEntity
  8
sideviews
370
    35
  0
POLYLINE
  5
F8
330
1F
100
AcDbEntity
  8
sideviews
 62
     1
370
    35
100
AcDb2dPolyline
 66
     1
 10
0.0
 20
0.0
 30
0.0
  0
VERTEX
  5
F9
330
F8
100
AcDbEntity
  8
sideviews
 62
     1
370
    35
100
AcDbVertex
100
AcDb2dVertex
 10
163.9998087155105
 20
-54.85005423975971
 30
0.0
  0
VERTEX
  5
FA
330
F8
100
AcDbEntity
  8
sideviews
 62
     1
370
    35
100
AcDbVertex
100
AcDb2dVertex
 10
173.93219125426
 20
-54.85005423975971
 30
0.0
  0
SEQEND
  5
FB
330
F8
100
AcDbEntity
  8
sideviews
370
    35
  0
POLYLINE
  5
FC
330
1F
100
AcDbEntity
  8
sideviews
 62
     1
370
    35
100
AcDb2dPolyline
 66
     1
 10
0.0
 20
0.0
 30
0.0
  0
VERTEX
  5
FD
330
FC
100
AcDbEntity
  8
sideviews
 62
     1
370
    35
100
AcDbVertex
100
AcDb2dVertex
 10
163.9999809702847
 20
-56.35004881403749
 30
0.0
  0
VERTEX
  5
FE
330
FC
100
AcDbEntity
  8
sideviews
 62
     1
370
    35
100
AcDbVertex
100
AcDb2dVertex
 10
173.9323635090343
 20
-56.35004881403749
 30
0.0
  0
SEQEND
  5
FF
330
FC
100
AcDbEntity
  8
sideviews
370
    35
  0
POLYLINE
  5
100
330
1F
100
AcDbEntity
  8
sideviews
 62
     1
370
    35
100
AcDb2dPolyline
 66
     1
 10
0.0
 20
0.0
 30
0.0
  0
VERTEX
  5
101
330
100
100
AcDbEntity
  8
sideviews
 62
     1
370
    35
100
AcDbVertex
100
AcDb2dVertex
 10
144.0001681497639
 20
-56.35004881403749
 30
0.0
  0
VERTEX
  5
102
330
100
100
AcDbEntity
  8
sideviews
 62
     1
370
    35
100
AcDbVertex
100
AcDb2dVertex
 10
154.0000745600243
 20
-56.35004881403749
 30
0.0
  0
SEQEND
  5
103
330
100
100
AcDbEntity
  8
sideviews
370
    35
  0
SPLINE
  5
104
330
1F
100
AcDbEntity
  8
sideviews
 62
     1
370
    35
100
AcDbSpline
210
0.0
220
0.0
230
1.0
 70
     8
 71
     3
 72
    11
 73
     7
 74
     0
 42
0.0000000001
 43
0.0000000001
 40
0.0
 40
0.0
 40
0.0
 40
0.0
 40
1.0
 40
1.0
 40
1.0
 40
2.0
 40
2.0
 40
2.0
 40
2.0
 10
500.9999103565209
 20
-39.58931476874851
 30
0.0
 10
500.9999103565209
 20
-31.28456759200525
 30
0.0
 10
507.7922606152395
 20
-24.55422905202117
 30
0.0
 10
516.1679767589789
 20
-24.55422905202117
 30
0.0
 10
524.5447264313639
 20
-24.55422905202117
 30
0.0
 10
531.3356986518884
 20
-31.28456759200525
 30
0.0
 10
531.3356986518884
 20
-39.58931476874851
 30
0.0
  0
SPLINE
  5
105
330
1F
100
AcDbEntity
  8
sideviews
 62
     1
370
    35
100
AcDbSpline
210
0.0
220
0.0
230
1.0
 70
     8
 71
     3
 72
    11
 73
     7
 74
     0
 42
0.0000000001
 43
0.0000000001
 40
0.0
 40
0.0
 40
0.0
 40
0.0
 40
1.0
 40
1.0
 40
1.0
 40
2.0
 40
2.0
 40
2.0
 40
2.0
 10
531.3356986518884
 20
-39.58931476874851
 30
0.0
 10
531.3356986518884
 20
-47.89337292639471
 30
0.0
 10
524.5447264313639
 20
-54.6250895045729
 30
0.0
 10
516.1679767589789
 20
-54.6250895045729
 30
0.0
 10
507.7915715961424
 20
-54.6250895045729
 30
0.0
 10
500.9999103565209
 20
-47.89337292639471
 30
0.0
 10
500.9999103565209
 20
-39.58931476874851
 30
0.0
  0
SPLINE
  5
106
330
1F
100
AcDbEntity
  8
sideviews
 62
     1
370
    35
100
AcDbSpline
210
0.0
220
0.0
230
1.0
 70
     8
 71
     3
 72
    11
 73
     7
 74
     0
 42
0.0000000001
 43
0.0000000001
 40
0.0
 40
0.0
 40
0.0
 40
0.0
 40
1.0
 40
1.0
 40
1.0
 40
2.0
 40
2.0
 40
2.0
 40
2.0
 10
539.7641247565521
 20
-39.58931476874851
 30
0.0
 10
539.7641247565521
 20
-32.68603243540488
 30
0.0
 10
545.361026881889
 20
-27.089130310068
 30
0.0
 10
552.2649982343296
 20
-27.089130310068
 30
0.0
 10
559.1675915485762
 20
-27.089130310068
 30
0.0
 10
564.7648381834616
 20
-32.68603243540488
 30
0.0
 10
564.7648381834616
 20
-39.58931476874851
 30
0.0
  0
SPLINE
  5
107
330
1F
100
AcDbEntity
  8
sideviews
 62
     1
370
    35
100
AcDbSpline
210
0.0
220
0.0
230
1.0
 70
     8
 71
     3
 72
    11
 73
     7
 74
     0
 42
0.0000000001
 43
0.0000000001
 40
0.0
 40
0.0
 40
0.0
 40
0.0
 40
1.0
 40
1.0
 40
1.0
 40
2.0
 40
2.0
 40
2.0
 40
2.0
 10
564.7648381834616
 20
-39.58931476874851
 30
0.0
 10
564.7648381834616
 20
-46.49259710209213
 30
0.0
 10
559.1675915485762
 20
-52.08949922742902
 30
0.0
 10
552.2649982343296
 20
-52.08949922742902
 30
0.0
 10
545.361026881889
 20
-52.08949922742902
 30
0.0
 10
539.7641247565521
 20
-46.49259710209213
 30
0.0
 10
539.7641247565521
 20
-39.58931476874851
 30
0.0
  0
SPLINE
  5
108
330
1F
100
AcDbEntity
  8
sideviews
 62
     1
370
    35
100
AcDbSpline
210
0.0
220
0.0
230
1.0
 70
     8
 71
     3
 72
    11
 73
     7
 74
     0
 42
0.0000000001
 43
0.0000000001
 40
0.0
 40
0.0
 40
0.0
 40
0.0
 40
1.0
 40
1.0
 40
1.0
 40
2.0
 40
2.0
 40
2.0
 40
2.0
 10
172.5000650610417
 20
-16.65100775408377
 30
0.0
 10
172.5000650610417
 20
-18.03180202457191
 30
0.0
 10
171.380753537884
 20
-19.15094129295532
 30
0.0
 10
169.9999592673958
 20
-19.15094129295532
 30
0.0
 10
168.619337251682
 20
-19.15094129295532
 30
0.0
 10
167.5000257285243
 20
-18.03180202457191
 30
0.0
 10
167.5000257285243
 20
-16.65100775408377
 30
0.0
  0
POLYLINE
  5
109
330
1F
100
AcDbEntity
  8
sideviews
 62
     1
370
    35
100
AcDb2dPolyline
 66
     1
 10
0.0
 20
0.0
 30
0.0
  0
VERTEX
  5
10A
330
109
100
AcDbEntity
  8
sideviews
 62
     1
370
    35
100
AcDbVertex
100
AcDb2dVertex
 10
167.5000257285243
 20
-16.65100775408377
 30
0.0
  0
VERTEX
  5
10B
330
109
100
AcDbEntity
  8
sideviews
 62
     1
370
    35
100
AcDbVertex
100
AcDb2dVertex
 10
167.5000257285243
 20
-13.30737033087455
 30
0.0
  0
SEQEND
  5
10C
330
109
100
AcDbEntity
  8
sideviews
370
    35
  0
POLYLINE
  5
10D
330
1F
100
AcDbEntity
  8
sideviews
 62
     1
370
    35
100
AcDb2dPolyline
 66
     1
 10
0.0
 20
0.0
 30
0.0
  0
VERTEX
  5
10E
330
10D
100
AcDbEntity
  8
sideviews
 62
     1
370
    35
100
AcDbVertex
100
AcDb2dVertex
 10
172.5000650610417
 20
-16.65100775408377
 30
0.0
  0
VERTEX
  5
10F
330
10D
100
AcDbEntity
  8
sideviews
 62
     1
370
    35
100
AcDbVertex
100
AcDb2dVertex
 10
172.5000650610417
 20
-12.35015055029788
 30
0.0
  0
SEQEND
  5
110
330
10D
100
AcDbEntity
  8
sideviews
370
    35
  0
POLYLINE
  5
111
330
1F
100
AcDbEntity
  8
sideviews
 62
     1
370
    35
100
AcDb2dPolyline
 66
     1
 10
0.0
 20
0.0
 30
0.0
  0
VERTEX
  5
112
330
111
100
AcDbEntity
  8
sideviews
 62
     1
370
    35
100
AcDbVertex
100
AcDb2dVertex
 10
175.999937564507
 20
-11.35003933092985
 30
0.0
  0
VERTEX
  5
113
330
111
100
AcDbEntity
  8
sideviews
 62
     1
370
    35
100
AcDbVertex
100
AcDb2dVertex
 10
172.5000650610417
 20
-12.35015055029788
 30
0.0
  0
SEQEND
  5
114
330
111
100
AcDbEntity
  8
sideviews
370
    35
  0
SPLINE
  5
115
330
1F
100
AcDbEntity
  8
sideviews
 62
     1
370
    35
100
AcDbSpline
210
0.0
220
0.0
230
1.0
 70
     8
 71
     3
 72
    11
 73
     7
 74
     0
 42
0.0000000001
 43
0.0000000001
 40
0.0
 40
0.0
 40
0.0
 40
0.0
 40
1.0
 40
1.0
 40
1.0
 40
2.0
 40
2.0
 40
2.0
 40
2.0
 10
435.3498262800514
 20
-5.426025389268494
 30
0.0
 10
435.3498262800514
 20
-6.806819659756629
 30
0.0
 10
436.4691378032092
 20
-7.926131182914301
 30
0.0
 10
437.8499320736972
 20
-7.926131182914301
 30
0.0
 10
439.2303818346369
 20
-7.926131182914301
 30
0.0
 10
440.3500378673431
 20
-6.806819659756629
 30
0.0
 10
440.3500378673431
 20
-5.426025389268494
 30
0.0
  0
POLYLINE
  5
116
330
1F
100
AcDbEntity
  8
sideviews
 62
     1
370
    35
100
AcDb2dPolyline
 66
     1
 10
0.0
 20
0.0
 30
0.0
  0
VERTEX
  5
117
330
116
100
AcDbEntity
  8
sideviews
 62
     1
370
    35
100
AcDbVertex
100
AcDb2dVertex
 10
440.3500378673431
 20
-5.426025389268494
 30
0.0
  0
VERTEX
  5
118
330
116
100
AcDbEntity
  8
sideviews
 62
     1
370
    35
100
AcDbVertex
100
AcDb2dVertex
 10
440.3548610010224
 20
-2.363680012429914
 30
0.0
  0
SEQEND
  5
119
330
116
100
AcDbEntity
  8
sideviews
370
    35
  0
POLYLINE
  5
11A
330
1F
100
AcDbEntity
  8
sideviews
 62
     1
370
    35
100
AcDb2dPolyline
 66
     1
 10
0.0
 20
0.0
 30
0.0
  0
VERTEX
  5
11B
330
11A
100
AcDbEntity
  8
sideviews
 62
     1
370
    35
100
AcDbVertex
100
AcDb2dVertex
 10
435.3498262800514
 20
-5.426025389268494
 30
0.0
  0
VERTEX
  5
11C
330
11A
100
AcDbEntity
  8
sideviews
 62
     1
370
    35
100
AcDbVertex
100
AcDb2dVertex
 10
435.3546494137308
 20
-1.496893988341054
 30
0.0
  0
SEQEND
  5
11D
330
11A
100
AcDbEntity
  8
sideviews
370
    35
  0
POLYLINE
  5
11E
330
1F
100
AcDbEntity
  8
sideviews
 62
     1
370
    35
100
AcDb2dPolyline
 66
     1
 10
0.0
 20
0.0
 30
0.0
  0
VERTEX
  5
11F
330
11E
100
AcDbEntity
  8
sideviews
 62
     1
370
    35
100
AcDbVertex
100
AcDb2dVertex
 10
432.000159939743
 20
-0.9999389645937653
 30
0.0
  0
VERTEX
  5
120
330
11E
100
AcDbEntity
  8
sideviews
 62
     1
370
    35
100
AcDbVertex
100
AcDb2dVertex
 10
435.3546494137308
 20
-1.496893988341054
 30
0.0
  0
SEQEND
  5
121
330
11E
100
AcDbEntity
  8
sideviews
370
    35
  0
POLYLINE
  5
122
330
1F
100
AcDbEntity
  8
sideviews
 62
     6
370
    35
100
AcDb2dPolyline
 66
     1
 10
0.0
 20
0.0
 30
0.0
  0
VERTEX
  5
123
330
122
100
AcDbEntity
  8
sideviews
 62
     6
370
    35
100
AcDbVertex
100
AcDb2dVertex
 10
15.42145317539811
 20
-139.1420667512388
 30
0.0
  0
VERTEX
  5
124
330
122
100
AcDbEntity
  8
sideviews
 62
     6
370
    35
100
AcDbVertex
100
AcDb2dVertex
 10
148.4328002558606
 20
-110.5308932557874
 30
0.0
  0
SEQEND
  5
125
330
122
100
AcDbEntity
  8
sideviews
370
    35
  0
SPLINE
  5
126
330
1F
100
AcDbEntity
  8
sideviews
 62
     6
370
    35
100
AcDbSpline
210
0.0
220
0.0
230
1.0
 70
     8
 71
     3
 72
     8
 73
     4
 74
     0
 42
0.0000000001
 43
0.0000000001
 40
0.0
 40
0.0
 40
0.0
 40
0.0
 40
1.0
 40
1.0
 40
1.0
 40
1.0
 10
8.999967445666675
 20
-148.3411607159529
 30
0.0
 10
8.999967445666675
 20
-140.3605970243717
 30
0.0
 10
11.68714192416155
 20
-140.0350355010156
 30
0.0
 10
15.42145317539811
 20
-139.1420667512388
 30
0.0
  0
POLYLINE
  5
127
330
1F
100
AcDbEntity
  8
sideviews
 62
     6
370
    35
100
AcDb2dPolyline
 66
     1
 10
0.0
 20
0.0
 30
0.0
  0
VERTEX
  5
128
330
127
100
AcDbEntity
  8
sideviews
 62
     6
370
    35
100
AcDbVertex
100
AcDb2dVertex
 10
581.9999618770695
 20
-114.5306491141625
 30
0.0
  0
VERTEX
  5
129
330
127
100
AcDbEntity
  8
sideviews
 62
     6
370
    35
100
AcDbVertex
100
AcDb2dVertex
 10
447.86448013977
 20
-96.53105873237766
 30
0.0
  0
SEQEND
  5
12A
330
127
100
AcDbEntity
  8
sideviews
370
    35
  0
SPLINE
  5
12B
330
1F
100
AcDbEntity
  8
sideviews
 62
     6
370
    35
100
AcDbSpline
210
0.0
220
0.0
230
1.0
 70
     8
 71
     3
 72
     8
 73
     4
 74
     0
 42
0.0000000001
 43
0.0000000001
 40
0.0
 40
0.0
 40
0.0
 40
0.0
 40
1.0
 40
1.0
 40
1.0
 40
1.0
 10
500.9999103565209
 20
-158.5095322954421
 30
0.0
 10
528.4614554885444
 20
-157.9390244830847
 30
0.0
 10
563.9745332791452
 20
-156.6161078167488
 30
0.0
 10
581.9999618770695
 20
-143.0305460254403
 30
0.0
  0
POLYLINE
  5
12C
330
1F
100
AcDbEntity
  8
sideviews
 62
     6
370
    35
100
AcDb2dPolyline
 66
     1
 10
0.0
 20
0.0
 30
0.0
  0
VERTEX
  5
12D
330
12C
100
AcDbEntity
  8
sideviews
 62
     6
370
    35
100
AcDbVertex
100
AcDb2dVertex
 10
581.9999618770695
 20
-114.5306491141625
 30
0.0
  0
VERTEX
  5
12E
330
12C
100
AcDbEntity
  8
sideviews
 62
     6
370
    35
100
AcDbVertex
100
AcDb2dVertex
 10
581.9999618770695
 20
-143.0305460254403
 30
0.0
  0
SEQEND
  5
12F
330
12C
100
AcDbEntity
  8
sideviews
370
    35
  0
POLYLINE
  5
130
330
1F
100
AcDbEntity
  8
sideviews
 62
     6
370
    35
100
AcDb2dPolyline
 66
     1
 10
0.0
 20
0.0
 30
0.0
  0
VERTEX
  5
131
330
130
100
AcDbEntity
  8
sideviews
 62
     6
370
    35
100
AcDbVertex
100
AcDb2dVertex
 10
89.00008000162151
 20
-152.5303968260167
 30
0.0
  0
VERTEX
  5
132
330
130
100
AcDbEntity
  8
sideviews
 62
     6
370
    35
100
AcDbVertex
100
AcDb2dVertex
 10
89.00008000162151
 20
-159.5313476163672
 30
0.0
  0
SEQEND
  5
133
330
130
100
AcDbEntity
  8
sideviews
370
    35
  0
POLYLINE
  5
134
330
1F
100
AcDbEntity
  8
sideviews
 62
     6
370
    35
100
AcDb2dPolyline
 66
     1
 10
0.0
 20
0.0
 30
0.0
  0
VERTEX
  5
135
330
134
100
AcDbEntity
  8
sideviews
 62
     6
370
    35
100
AcDbVertex
100
AcDb2dVertex
 10
138.9999565624722
 20
-159.5313476163672
 30
0.0
  0
VERTEX
  5
136
330
134
100
AcDbEntity
  8
sideviews
 62
     6
370
    35
100
AcDbVertex
100
AcDb2dVertex
 10
138.9999565624722
 20
-152.5303968260167
 30
0.0
  0
SEQEND
  5
137
330
134
100
AcDbEntity
  8
sideviews
370
    35
  0
POLYLINE
  5
138
330
1F
100
AcDbEntity
  8
sideviews
 62
     6
370
    35
100
AcDb2dPolyline
 66
     1
 10
0.0
 20
0.0
 30
0.0
  0
VERTEX
  5
139
330
138
100
AcDbEntity
  8
sideviews
 62
     6
370
    35
100
AcDbVertex
100
AcDb2dVertex
 10
88.99904647297593
 20
-159.4720919740209
 30
0.0
  0
VERTEX
  5
13A
330
138
100
AcDbEntity
  8
sideviews
 62
     6
370
    35
100
AcDbVertex
100
AcDb2dVertex
 10
49.32791068645275
 20
-159.5403048646288
 30
0.0
  0
SEQEND
  5
13B
330
138
100
AcDbEntity
  8
sideviews
370
    35
  0
POLYLINE
  5
13C
330
1F
100
AcDbEntity
  8
sideviews
 62
     7
370
    35
100
AcDb2dPolyline
 66
     1
 10
0.0
 20
0.0
 30
0.0
  0
VERTEX
  5
13D
330
13C
100
AcDbEntity
  8
sideviews
 62
     7
370
    35
100
AcDbVertex
100
AcDb2dVertex
 10
8.999967445666675
 20
-159.4720919740209
 30
0.0
  0
VERTEX
  5
13E
330
13C
100
AcDbEntity
  8
sideviews
 62
     7
370
    35
100
AcDbVertex
100
AcDb2dVertex
 10
8.999967445666675
 20
-148.3411607159529
 30
0.0
  0
SEQEND
  5
13F
330
13C
100
AcDbEntity
  8
sideviews
370
    35
  0
POLYLINE
  5
140
330
1F
100
AcDbEntity
  8
sideviews
 62
     6
370
    35
100
AcDb2dPolyline
 66
     1
 10
0.0
 20
0.0
 30
0.0
  0
VERTEX
  5
141
330
140
100
AcDbEntity
  8
sideviews
 62
     6
370
    35
100
AcDbVertex
100
AcDb2dVertex
 10
159.9997083475869
 20
-159.5403048646288
 30
0.0
  0
VERTEX
  5
142
330
140
100
AcDbEntity
  8
sideviews
 62
     6
370
    35
100
AcDbVertex
100
AcDb2dVertex
 10
138.9996120529237
 20
-159.5313476163672
 30
0.0
  0
SEQEND
  5
143
330
140
100
AcDbEntity
  8
sideviews
370
    35
  0
POLYLINE
  5
144
330
1F
100
AcDbEntity
  8
sideviews
 62
     6
370
    35
100
AcDb2dPolyline
 66
     1
 10
0.0
 20
0.0
 30
0.0
  0
VERTEX
  5
145
330
144
100
AcDbEntity
  8
sideviews
 62
     6
370
    35
100
AcDbVertex
100
AcDb2dVertex
 10
435.0001490882986
 20
-159.5313476163672
 30
0.0
  0
VERTEX
  5
146
330
144
100
AcDbEntity
  8
sideviews
 62
     6
370
    35
100
AcDbVertex
100
AcDb2dVertex
 10
462.9998181351181
 20
-159.5313476163672
 30
0.0
  0
SEQEND
  5
147
330
144
100
AcDbEntity
  8
sideviews
370
    35
  0
POLYLINE
  5
148
330
1F
100
AcDbEntity
  8
sideviews
 62
     6
370
    35
100
AcDb2dPolyline
 66
     1
 10
0.0
 20
0.0
 30
0.0
  0
VERTEX
  5
149
330
148
100
AcDbEntity
  8
sideviews
 62
     6
370
    35
100
AcDbVertex
100
AcDb2dVertex
 10
88.99904647297593
 20
-152.4904337183878
 30
0.0
  0
VERTEX
  5
14A
330
148
100
AcDbEntity
  8
sideviews
 62
     6
370
    35
100
AcDbVertex
100
AcDb2dVertex
 10
118.0222533884632
 20
-152.5393540742784
 30
0.0
  0
SEQEND
  5
14B
330
148
100
AcDbEntity
  8
sideviews
370
    35
  0
POLYLINE
  5
14C
330
1F
100
AcDbEntity
  8
sideviews
 62
     6
370
    35
100
AcDb2dPolyline
 66
     1
 10
0.0
 20
0.0
 30
0.0
  0
VERTEX
  5
14D
330
14C
100
AcDbEntity
  8
sideviews
 62
     6
370
    35
100
AcDbVertex
100
AcDb2dVertex
 10
134.0243774079002
 20
-128.7034274309318
 30
0.0
  0
VERTEX
  5
14E
330
14C
100
AcDbEntity
  8
sideviews
 62
     6
370
    35
100
AcDbVertex
100
AcDb2dVertex
 10
134.0243774079002
 20
-152.5393540742784
 30
0.0
  0
SEQEND
  5
14F
330
14C
100
AcDbEntity
  8
sideviews
370
    35
  0
POLYLINE
  5
150
330
1F
100
AcDbEntity
  8
sideviews
 62
     6
370
    35
100
AcDb2dPolyline
 66
     1
 10
0.0
 20
0.0
 30
0.0
  0
VERTEX
  5
151
330
150
100
AcDbEntity
  8
sideviews
 62
     6
370
    35
100
AcDbVertex
100
AcDb2dVertex
 10
118.0222533884632
 20
-152.5393540742784
 30
0.0
  0
VERTEX
  5
152
330
150
100
AcDbEntity
  8
sideviews
 62
     6
370
    35
100
AcDbVertex
100
AcDb2dVertex
 10
118.0222533884632
 20
-128.7034274309318
 30
0.0
  0
SEQEND
  5
153
330
150
100
AcDbEntity
  8
sideviews
370
    35
  0
POLYLINE
  5
154
330
1F
100
AcDbEntity
  8
sideviews
 62
     6
370
    35
100
AcDb2dPolyline
 66
     1
 10
0.0
 20
0.0
 30
0.0
  0
VERTEX
  5
155
330
154
100
AcDbEntity
  8
sideviews
 62
     6
370
    35
100
AcDbVertex
100
AcDb2dVertex
 10
138.9608547287147
 20
-152.5393540742784
 30
0.0
  0
VERTEX
  5
156
330
154
100
AcDbEntity
  8
sideviews
 62
     6
370
    35
100
AcDbVertex
100
AcDb2dVertex
 10
134.0243774079002
 20
-152.5393540742784
 30
0.0
  0
SEQEND
  5
157
330
154
100
AcDbEntity
  8
sideviews
370
    35
  0
POLYLINE
  5
158
330
1F
100
AcDbEntity
  8
sideviews
 62
     6
370
    35
100
AcDb2dPolyline
 66
     1
 10
0.0
 20
0.0
 30
0.0
  0
VERTEX
  5
159
330
158
100
AcDbEntity
  8
sideviews
 62
     6
370
    35
100
AcDbVertex
100
AcDb2dVertex
 10
49.32791068645275
 20
-159.5403048646288
 30
0.0
  0
VERTEX
  5
15A
330
158
100
AcDbEntity
  8
sideviews
 62
     6
370
    35
100
AcDbVertex
100
AcDb2dVertex
 10
49.32791068645275
 20
-142.840032245106
 30
0.0
  0
VERTEX
  5
15B
330
158
100
AcDbEntity
  8
sideviews
 62
     6
370
    35
100
AcDbVertex
100
AcDb2dVertex
 10
9.745313853900477
 20
-142.8307304872958
 30
0.0
  0
SEQEND
  5
15C
330
158
100
AcDbEntity
  8
sideviews
370
    35
  0
SPLINE
  5
15D
330
1F
100
AcDbEntity
  8
sideviews
 62
     6
370
    35
100
AcDbSpline
210
0.0
220
0.0
230
1.0
 70
    11
 71
     3
 72
    17
 73
    13
 74
     0
 42
0.0000000001
 43
0.0000000001
 40
0.0
 40
0.0
 40
0.0
 40
0.0
 40
1.0
 40
1.0
 40
1.0
 40
2.0
 40
2.0
 40
2.0
 40
3.0
 40
3.0
 40
3.0
 40
4.0
 40
4.0
 40
4.0
 40
4.0
 10
339.9999185347917
 20
-132.5305840054958
 30
0.0
 10
339.9999185347917
 20
-140.8160386475217
 30
0.0
 10
346.7168212023833
 20
-147.5305297482736
 30
0.0
 10
354.9995197680209
 20
-147.5305297482736
 30
0.0
 10
363.2846299004983
 20
-147.5305297482736
 30
0.0
 10
370.0001545298958
 20
-140.8160386475217
 30
0.0
 10
370.0001545298958
 20
-132.5305840054958
 30
0.0
 10
370.0001545298958
 20
-124.2465074016641
 30
0.0
 10
363.2846299004983
 20
-117.530638262718
 30
0.0
 10
354.9995197680209
 20
-117.530638262718
 30
0.0
 10
346.7161321832863
 20
-117.530638262718
 30
0.0
 10
339.9999185347917
 20
-124.2465074016641
 30
0.0
 10
339.9999185347917
 20
-132.5305840054958
 30
0.0
  0
SPLINE
  5
15E
330
1F
100
AcDbEntity
  8
sideviews
 62
     6
370
    35
100
AcDbSpline
210
0.0
220
0.0
230
1.0
 70
    11
 71
     3
 72
    17
 73
    13
 74
     0
 42
0.0000000001
 43
0.0000000001
 40
0.0
 40
0.0
 40
0.0
 40
0.0
 40
1.0
 40
1.0
 40
1.0
 40
2.0
 40
2.0
 40
2.0
 40
3.0
 40
3.0
 40
3.0
 40
4.0
 40
4.0
 40
4.0
 40
4.0
 10
409.9997801709376
 20
-132.5302394959473
 30
0.0
 10
409.9997801709376
 20
-124.2465074016641
 30
0.0
 10
403.2842555415401
 20
-117.530638262718
 30
0.0
 10
395.0008679568053
 20
-117.530638262718
 30
0.0
 10
386.7154133147795
 20
-117.530638262718
 30
0.0
 10
379.999888685382
 20
-124.2465074016641
 30
0.0
 10
379.999888685382
 20
-132.5302394959473
 30
0.0
 10
379.999888685382
 20
-140.8153496284246
 30
0.0
 10
386.7154133147795
 20
-147.5305297482736
 30
0.0
 10
395.0008679568053
 20
-147.5305297482736
 30
0.0
 10
403.2842555415401
 20
-147.5305297482736
 30
0.0
 10
409.9997801709376
 20
-140.8153496284246
 30
0.0
 10
409.9997801709376
 20
-132.5302394959473
 30
0.0
  0
SPLINE
  5
15F
330
1F
100
AcDbEntity
  8
sideviews
 62
     6
370
    35
100
AcDbSpline
210
0.0
220
0.0
230
1.0
 70
    11
 71
     3
 72
    17
 73
    13
 74
     0
 42
0.0000000001
 43
0.0000000001
 40
0.0
 40
0.0
 40
0.0
 40
0.0
 40
1.0
 40
1.0
 40
1.0
 40
2.0
 40
2.0
 40
2.0
 40
3.0
 40
3.0
 40
3.0
 40
4.0
 40
4.0
 40
4.0
 40
4.0
 10
259.9999782336111
 20
-132.5305840054958
 30
0.0
 10
259.9999782336111
 20
-140.8160386475217
 30
0.0
 10
266.717053155977
 20
-147.5305297482736
 30
0.0
 10
274.9994072120662
 20
-147.5305297482736
 30
0.0
 10
283.2845173445435
 20
-147.5305297482736
 30
0.0
 10
289.9998697191667
 20
-140.8160386475217
 30
0.0
 10
289.9998697191667
 20
-132.5305840054958
 30
0.0
 10
289.9998697191667
 20
-124.2465074016641
 30
0.0
 10
283.2845173445435
 20
-117.530638262718
 30
0.0
 10
274.9994072120662
 20
-117.530638262718
 30
0.0
 10
266.71636413688
 20
-117.530638262718
 30
0.0
 10
259.9999782336111
 20
-124.2465074016641
 30
0.0
 10
259.9999782336111
 20
-132.5305840054958
 30
0.0
  0
SPLINE
  5
160
330
1F
100
AcDbEntity
  8
sideviews
 62
     6
370
    35
100
AcDbSpline
210
0.0
220
0.0
230
1.0
 70
    11
 71
     3
 72
    17
 73
    13
 74
     0
 42
0.0000000001
 43
0.0000000001
 40
0.0
 40
0.0
 40
0.0
 40
0.0
 40
1.0
 40
1.0
 40
1.0
 40
2.0
 40
2.0
 40
2.0
 40
3.0
 40
3.0
 40
3.0
 40
4.0
 40
4.0
 40
4.0
 40
4.0
 10
329.999839869757
 20
-132.5302394959473
 30
0.0
 10
329.999839869757
 20
-124.2465074016641
 30
0.0
 10
323.2839707308109
 20
-117.530638262718
 30
0.0
 10
315.0002386365277
 20
-117.530638262718
 30
0.0
 10
306.7144394849533
 20
-117.530638262718
 30
0.0
 10
300.0002928937499
 20
-124.2465074016641
 30
0.0
 10
300.0002928937499
 20
-132.5302394959473
 30
0.0
 10
300.0002928937499
 20
-140.8153496284246
 30
0.0
 10
306.7144394849533
 20
-147.5305297482736
 30
0.0
 10
315.0002386365277
 20
-147.5305297482736
 30
0.0
 10
323.2839707308109
 20
-147.5305297482736
 30
0.0
 10
329.999839869757
 20
-140.8153496284246
 30
0.0
 10
329.999839869757
 20
-132.5302394959473
 30
0.0
  0
SPLINE
  5
161
330
1F
100
AcDbEntity
  8
sideviews
 62
     6
370
    35
100
AcDbSpline
210
0.0
220
0.0
230
1.0
 70
    11
 71
     3
 72
    17
 73
    13
 74
     0
 42
0.0000000001
 43
0.0000000001
 40
0.0
 40
0.0
 40
0.0
 40
0.0
 40
1.0
 40
1.0
 40
1.0
 40
2.0
 40
2.0
 40
2.0
 40
3.0
 40
3.0
 40
3.0
 40
4.0
 40
4.0
 40
4.0
 40
4.0
 10
180.0002101872048
 20
-132.5316175341414
 30
0.0
 10
180.0002101872048
 20
-140.8160386475217
 30
0.0
 10
186.7167683452479
 20
-147.5305297482736
 30
0.0
 10
194.9992946561113
 20
-147.5305297482736
 30
0.0
 10
203.2842325338144
 20
-147.5305297482736
 30
0.0
 10
210.0001016727604
 20
-140.8160386475217
 30
0.0
 10
210.0001016727604
 20
-132.5316175341414
 30
0.0
 10
210.0001016727604
 20
-124.2468519112126
 30
0.0
 10
203.2842325338144
 20
-117.530638262718
 30
0.0
 10
194.9992946561113
 20
-117.530638262718
 30
0.0
 10
186.7164238356994
 20
-117.530638262718
 30
0.0
 10
180.0002101872048
 20
-124.2468519112126
 30
0.0
 10
180.0002101872048
 20
-132.5316175341414
 30
0.0
  0
SPLINE
  5
162
330
1F
100
AcDbEntity
  8
sideviews
 62
     6
370
    35
100
AcDbSpline
210
0.0
220
0.0
230
1.0
 70
    11
 71
     3
 72
    17
 73
    13
 74
     0
 42
0.0000000001
 43
0.0000000001
 40
0.0
 40
0.0
 40
0.0
 40
0.0
 40
1.0
 40
1.0
 40
1.0
 40
2.0
 40
2.0
 40
2.0
 40
3.0
 40
3.0
 40
3.0
 40
4.0
 40
4.0
 40
4.0
 40
4.0
 10
250.0000718233507
 20
-132.5309285150444
 30
0.0
 10
250.0000718233507
 20
-124.2465074016641
 30
0.0
 10
243.2845471939532
 20
-117.530638262718
 30
0.0
 10
235.0011596092185
 20
-117.530638262718
 30
0.0
 10
226.7157049671926
 20
-117.530638262718
 30
0.0
 10
220.0001803377951
 20
-124.2465074016641
 30
0.0
 10
220.0001803377951
 20
-132.5309285150444
 30
0.0
 10
220.0001803377951
 20
-140.8160386475217
 30
0.0
 10
226.7157049671926
 20
-147.5305297482736
 30
0.0
 10
235.0011596092185
 20
-147.5305297482736
 30
0.0
 10
243.2845471939532
 20
-147.5305297482736
 30
0.0
 10
250.0000718233507
 20
-140.8160386475217
 30
0.0
 10
250.0000718233507
 20
-132.5309285150444
 30
0.0
  0
SPLINE
  5
163
330
1F
100
AcDbEntity
  8
sideviews
 62
     6
370
    35
100
AcDbSpline
210
0.0
220
0.0
230
1.0
 70
     8
 71
     3
 72
     8
 73
     4
 74
     0
 42
0.0000000001
 43
0.0000000001
 40
0.0
 40
0.0
 40
0.0
 40
0.0
 40
1.0
 40
1.0
 40
1.0
 40
1.0
 10
118.0222533884632
 20
-128.4626152565128
 30
0.0
 10
118.0222533884632
 20
-123.2081556224098
 30
0.0
 10
134.0243774079002
 20
-123.2556979401062
 30
0.0
 10
134.0243774079002
 20
-128.4626152565128
 30
0.0
  0
SPLINE
  5
164
330
1F
100
AcDbEntity
  8
sideviews
 62
     6
370
    35
100
AcDbSpline
210
0.0
220
0.0
230
1.0
 70
     8
 71
     3
 72
     8
 73
     4
 74
     0
 42
0.0000000001
 43
0.0000000001
 40
0.0
 40
0.0
 40
0.0
 40
0.0
 40
1.0
 40
1.0
 40
1.0
 40
1.0
 10
201.000306481868
 20
-73.53125676330122
 30
0.0
 10
233.4577568318265
 20
-72.1549411169439
 30
0.0
 10
282.0167222059715
 20
-71.59270153375114
 30
0.0
 10
447.86448013977
 20
-96.53071422282913
 30
0.0
  0
POLYLINE
  5
165
330
1F
100
AcDbEntity
  8
sideviews
 62
     6
370
    35
100
AcDb2dPolyline
 66
     1
 10
0.0
 20
0.0
 30
0.0
  0
VERTEX
  5
166
330
165
100
AcDbEntity
  8
sideviews
 62
     6
370
    35
100
AcDbVertex
100
AcDb2dVertex
 10
182.9998548262118
 20
-74.53102347312073
 30
0.0
  0
VERTEX
  5
167
330
165
100
AcDbEntity
  8
sideviews
 62
     6
370
    35
100
AcDbVertex
100
AcDb2dVertex
 10
148.4328002558606
 20
-110.5308932557874
 30
0.0
  0
SEQEND
  5
168
330
165
100
AcDbEntity
  8
sideviews
370
    35
  0
POLYLINE
  5
169
330
1F
100
AcDbEntity
  8
sideviews
 62
     6
370
    35
100
AcDb2dPolyline
 66
     1
 10
0.0
 20
0.0
 30
0.0
  0
VERTEX
  5
16A
330
169
100
AcDbEntity
  8
sideviews
 62
     6
370
    35
100
AcDbVertex
100
AcDb2dVertex
 10
182.9998548262118
 20
-74.53102347312073
 30
0.0
  0
VERTEX
  5
16B
330
169
100
AcDbEntity
  8
sideviews
 62
     6
370
    35
100
AcDbVertex
100
AcDb2dVertex
 10
201.000306481868
 20
-73.53125676330122
 30
0.0
  0
SEQEND
  5
16C
330
169
100
AcDbEntity
  8
sideviews
370
    35
  0
SPLINE
  5
16D
330
1F
100
AcDbEntity
  8
sideviews
 62
     6
370
    35
100
AcDbSpline
210
0.0
220
0.0
230
1.0
 70
     8
 71
     3
 72
     8
 73
     4
 74
     0
 42
0.0000000001
 43
0.0000000001
 40
0.0
 40
0.0
 40
0.0
 40
0.0
 40
1.0
 40
1.0
 40
1.0
 40
1.0
 10
481.999519736271
 20
-116.53052704335
 30
0.0
 10
471.506447907297
 20
-116.53052704335
 30
0.0
 10
462.9998181351181
 20
-125.0244099622335
 30
0.0
 10
462.9998181351181
 20
-135.5054239570091
 30
0.0
  0
SPLINE
  5
16E
330
1F
100
AcDbEntity
  8
sideviews
 62
     6
370
    35
100
AcDbSpline
210
0.0
220
0.0
230
1.0
 70
     8
 71
     3
 72
     8
 73
     4
 74
     0
 42
0.0000000001
 43
0.0000000001
 40
0.0
 40
0.0
 40
0.0
 40
0.0
 40
1.0
 40
1.0
 40
1.0
 40
1.0
 10
500.9999103565209
 20
-135.5054239570091
 30
0.0
 10
500.9999103565209
 20
-125.0244099622335
 30
0.0
 10
492.493280584342
 20
-116.53052704335
 30
0.0
 10
481.999519736271
 20
-116.53052704335
 30
0.0
  0
POLYLINE
  5
16F
330
1F
100
AcDbEntity
  8
sideviews
 62
     6
370
    35
100
AcDb2dPolyline
 66
     1
 10
0.0
 20
0.0
 30
0.0
  0
VERTEX
  5
170
330
16F
100
AcDbEntity
  8
sideviews
 62
     6
370
    35
100
AcDbVertex
100
AcDb2dVertex
 10
462.9998181351181
 20
-135.5054239570091
 30
0.0
  0
VERTEX
  5
171
330
16F
100
AcDbEntity
  8
sideviews
 62
     6
370
    35
100
AcDbVertex
100
AcDb2dVertex
 10
462.9998181351181
 20
-159.5313476163672
 30
0.0
  0
SEQEND
  5
172
330
16F
100
AcDbEntity
  8
sideviews
370
    35
  0
POLYLINE
  5
173
330
1F
100
AcDbEntity
  8
sideviews
 62
     6
370
    35
100
AcDb2dPolyline
 66
     1
 10
0.0
 20
0.0
 30
0.0
  0
VERTEX
  5
174
330
173
100
AcDbEntity
  8
sideviews
 62
     6
370
    35
100
AcDbVertex
100
AcDb2dVertex
 10
500.9999103565209
 20
-135.5054239570091
 30
0.0
  0
VERTEX
  5
175
330
173
100
AcDbEntity
  8
sideviews
 62
     6
370
    35
100
AcDbVertex
100
AcDb2dVertex
 10
500.9999103565209
 20
-158.5095322954421
 30
0.0
  0
SEQEND
  5
176
330
173
100
AcDbEntity
  8
sideviews
370
    35
  0
SPLINE
  5
177
330
1F
100
AcDbEntity
  8
sideviews
 62
     6
370
    35
100
AcDbSpline
210
0.0
220
0.0
230
1.0
 70
    11
 71
     3
 72
    17
 73
    13
 74
     0
 42
0.0000000001
 43
0.0000000001
 40
0.0
 40
0.0
 40
0.0
 40
0.0
 40
1.0
 40
1.0
 40
1.0
 40
2.0
 40
2.0
 40
2.0
 40
3.0
 40
3.0
 40
3.0
 40
4.0
 40
4.0
 40
4.0
 40
4.0
 10
449.9997503215279
 20
-132.5305840054958
 30
0.0
 10
449.9997503215279
 20
-124.2465074016641
 30
0.0
 10
443.2845702016789
 20
-117.5302937531695
 30
0.0
 10
435.0008381073956
 20
-117.5302937531695
 30
0.0
 10
426.7157279749183
 20
-117.5302937531695
 30
0.0
 10
420.0002033455208
 20
-124.2465074016641
 30
0.0
 10
420.0002033455208
 20
-132.5305840054958
 30
0.0
 10
420.0002033455208
 20
-140.8153496284246
 30
0.0
 10
426.7157279749183
 20
-147.5305297482736
 30
0.0
 10
435.0008381073956
 20
-147.5305297482736
 30
0.0
 10
443.2845702016789
 20
-147.5305297482736
 30
0.0
 10
449.9997503215279
 20
-140.8153496284246
 30
0.0
 10
449.9997503215279
 20
-132.5305840054958
 30
0.0
  0
POLYLINE
  5
178
330
1F
100
AcDbEntity
  8
sideviews
 62
     6
370
    35
100
AcDb2dPolyline
 66
     1
 10
0.0
 20
0.0
 30
0.0
  0
VERTEX
  5
179
330
178
100
AcDbEntity
  8
sideviews
 62
     6
370
    35
100
AcDbVertex
100
AcDb2dVertex
 10
159.9997083475869
 20
-154.5304470099785
 30
0.0
  0
VERTEX
  5
17A
330
178
100
AcDbEntity
  8
sideviews
 62
     6
370
    35
100
AcDbVertex
100
AcDb2dVertex
 10
435.0001490882986
 20
-154.5304470099785
 30
0.0
  0
SEQEND
  5
17B
330
178
100
AcDbEntity
  8
sideviews
370
    35
  0
POLYLINE
  5
17C
330
1F
100
AcDbEntity
  8
sideviews
 62
     6
370
    35
100
AcDb2dPolyline
 66
     1
 10
0.0
 20
0.0
 30
0.0
  0
VERTEX
  5
17D
330
17C
100
AcDbEntity
  8
sideviews
 62
     6
370
    35
100
AcDbVertex
100
AcDb2dVertex
 10
159.9997083475869
 20
-154.5304470099785
 30
0.0
  0
VERTEX
  5
17E
330
17C
100
AcDbEntity
  8
sideviews
 62
     6
370
    35
100
AcDbVertex
100
AcDb2dVertex
 10
159.9997083475869
 20
-159.5403048646288
 30
0.0
  0
SEQEND
  5
17F
330
17C
100
AcDbEntity
  8
sideviews
370
    35
  0
POLYLINE
  5
180
330
1F
100
AcDbEntity
  8
sideviews
 62
     6
370
    35
100
AcDb2dPolyline
 66
     1
 10
0.0
 20
0.0
 30
0.0
  0
VERTEX
  5
181
330
180
100
AcDbEntity
  8
sideviews
 62
     6
370
    35
100
AcDbVertex
100
AcDb2dVertex
 10
435.0001490882986
 20
-154.5304470099785
 30
0.0
  0
VERTEX
  5
182
330
180
100
AcDbEntity
  8
sideviews
 62
     6
370
    35
100
AcDbVertex
100
AcDb2dVertex
 10
435.0001490882986
 20
-159.5313476163672
 30
0.0
  0
SEQEND
  5
183
330
180
100
AcDbEntity
  8
sideviews
370
    35
  0
POLYLINE
  5
184
330
1F
100
AcDbEntity
  8
sideviews
 62
     7
370
    35
100
AcDb2dPolyline
 66
     1
 10
0.0
 20
0.0
 30
0.0
  0
VERTEX
  5
185
330
184
100
AcDbEntity
  8
sideviews
 62
     7
370
    35
100
AcDbVertex
100
AcDb2dVertex
 10
49.32791068645275
 20
-159.5403048646288
 30
0.0
  0
VERTEX
  5
186
330
184
100
AcDbEntity
  8
sideviews
 62
     7
370
    35
100
AcDbVertex
100
AcDb2dVertex
 10
8.999967445666675
 20
-159.4720919740209
 30
0.0
  0
SEQEND
  5
187
330
184
100
AcDbEntity
  8
sideviews
370
    35
  0
SPLINE
  5
188
330
1F
100
AcDbEntity
  8
sideviews
 62
     6
370
    35
100
AcDbSpline
210
0.0
220
0.0
230
1.0
 70
    11
 71
     3
 72
    17
 73
    13
 74
     0
 42
0.0000000001
 43
0.0000000001
 40
0.0
 40
0.0
 40
0.0
 40
0.0
 40
1.0
 40
1.0
 40
1.0
 40
2.0
 40
2.0
 40
2.0
 40
3.0
 40
3.0
 40
3.0
 40
4.0
 40
4.0
 40
4.0
 40
4.0
 10
172.5000650610417
 20
-109.7805514591
 30
0.0
 10
172.5000650610417
 20
-111.1613457295881
 30
0.0
 10
171.380753537884
 20
-112.2806572527458
 30
0.0
 10
169.9999592673958
 20
-112.2806572527458
 30
0.0
 10
168.6191649969077
 20
-112.2806572527458
 30
0.0
 10
167.4998534737501
 20
-111.1613457295881
 30
0.0
 10
167.4998534737501
 20
-109.7805514591
 30
0.0
 10
167.4998534737501
 20
-108.3997571886119
 30
0.0
 10
168.6191649969077
 20
-107.2807901750027
 30
0.0
 10
169.9999592673958
 20
-107.2807901750027
 30
0.0
 10
171.380753537884
 20
-107.2807901750027
 30
0.0
 10
172.5000650610417
 20
-108.3997571886119
 30
0.0
 10
172.5000650610417
 20
-109.7805514591
 30
0.0
  0
SPLINE
  5
189
330
1F
100
AcDbEntity
  8
sideviews
 62
     6
370
    35
100
AcDbSpline
210
0.0
220
0.0
230
1.0
 70
    11
 71
     3
 72
    17
 73
    13
 74
     0
 42
0.0000000001
 43
0.0000000001
 40
0.0
 40
0.0
 40
0.0
 40
0.0
 40
1.0
 40
1.0
 40
1.0
 40
2.0
 40
2.0
 40
2.0
 40
3.0
 40
3.0
 40
3.0
 40
4.0
 40
4.0
 40
4.0
 40
4.0
 10
440.3500378673431
 20
-98.53059215201667
 30
0.0
 10
440.3500378673431
 20
-99.91138642250479
 30
0.0
 10
439.2303818346369
 20
-101.0303534361139
 30
0.0
 10
437.8499320736972
 20
-101.0303534361139
 30
0.0
 10
436.4694823127576
 20
-101.0303534361139
 30
0.0
 10
435.3498262800514
 20
-99.91207544160184
 30
0.0
 10
435.3498262800514
 20
-98.53059215201667
 30
0.0
 10
435.3498262800514
 20
-97.14979788152853
 30
0.0
 10
436.4694823127576
 20
-96.03083086791938
 30
0.0
 10
437.8499320736972
 20
-96.03083086791938
 30
0.0
 10
439.2303818346369
 20
-96.03083086791938
 30
0.0
 10
440.3500378673431
 20
-97.14979788152853
 30
0.0
 10
440.3500378673431
 20
-98.53059215201667
 30
0.0
  0
SPLINE
  5
18A
330
1F
100
AcDbEntity
  8
sideviews
 62
     6
370
    35
100
AcDbSpline
210
0.0
220
0.0
230
1.0
 70
    11
 71
     3
 72
    17
 73
    13
 74
     0
 42
0.0000000001
 43
0.0000000001
 40
0.0
 40
0.0
 40
0.0
 40
0.0
 40
1.0
 40
1.0
 40
1.0
 40
2.0
 40
2.0
 40
2.0
 40
3.0
 40
3.0
 40
3.0
 40
4.0
 40
4.0
 40
4.0
 40
4.0
 10
172.5000650610417
 20
-109.7805514591
 30
0.0
 10
172.5000650610417
 20
-111.1613457295881
 30
0.0
 10
171.380753537884
 20
-112.2806572527458
 30
0.0
 10
169.9999592673958
 20
-112.2806572527458
 30
0.0
 10
168.6191649969077
 20
-112.2806572527458
 30
0.0
 10
167.4998534737501
 20
-111.1613457295881
 30
0.0
 10
167.4998534737501
 20
-109.7805514591
 30
0.0
 10
167.4998534737501
 20
-108.3997571886119
 30
0.0
 10
168.6191649969077
 20
-107.2807901750027
 30
0.0
 10
169.9999592673958
 20
-107.2807901750027
 30
0.0
 10
171.380753537884
 20
-107.2807901750027
 30
0.0
 10
172.5000650610417
 20
-108.3997571886119
 30
0.0
 10
172.5000650610417
 20
-109.7805514591
 30
0.0
  0
POLYLINE
  5
18B
330
1F
100
AcDbEntity
  8
sideviews
 62
     3
370
    35
100
AcDb2dPolyline
 66
     1
 10
0.0
 20
0.0
 30
0.0
  0
VERTEX
  5
18C
330
18B
100
AcDbEntity
  8
sideviews
 62
     3
370
    35
100
AcDbVertex
100
AcDb2dVertex
 10
8.99962293611815
 20
-196.869981504602
 30
0.0
  0
VERTEX
  5
18D
330
18B
100
AcDbEntity
  8
sideviews
 62
     3
370
    35
100
AcDbVertex
100
AcDb2dVertex
 10
9.081099444344309
 20
-230.8703178676297
 30
0.0
  0
SEQEND
  5
18E
330
18B
100
AcDbEntity
  8
sideviews
370
    35
  0
POLYLINE
  5
18F
330
1F
100
AcDbEntity
  8
sideviews
 62
     3
370
    35
100
AcDb2dPolyline
 66
     1
 10
0.0
 20
0.0
 30
0.0
  0
VERTEX
  5
190
330
18F
100
AcDbEntity
  8
sideviews
 62
     3
370
    35
100
AcDbVertex
100
AcDb2dVertex
 10
581.9999618770695
 20
-168.4376084648351
 30
0.0
  0
VERTEX
  5
191
330
18F
100
AcDbEntity
  8
sideviews
 62
     3
370
    35
100
AcDbVertex
100
AcDb2dVertex
 10
581.9999618770695
 20
-214.369688531477
 30
0.0
  0
SEQEND
  5
192
330
18F
100
AcDbEntity
  8
sideviews
370
    35
  0
SPLINE
  5
193
330
1F
100
AcDbEntity
  8
sideviews
 62
     3
370
    35
100
AcDbSpline
210
0.0
220
0.0
230
1.0
 70
     8
 71
     3
 72
     8
 73
     4
 74
     0
 42
0.0000000001
 43
0.0000000001
 40
0.0
 40
0.0
 40
0.0
 40
0.0
 40
1.0
 40
1.0
 40
1.0
 40
1.0
 10
323.9995170630974
 20
-164.0003254798333
 30
0.0
 10
376.6295517721621
 20
-164.1746473113869
 30
0.0
 10
525.2530380631312
 20
-165.4376193162795
 30
0.0
 10
581.9999618770695
 20
-168.4376084648351
 30
0.0
  0
SPLINE
  5
194
330
1F
100
AcDbEntity
  8
sideviews
 62
     3
370
    35
100
AcDbSpline
210
0.0
220
0.0
230
1.0
 70
     8
 71
     3
 72
     8
 73
     4
 74
     0
 42
0.0000000001
 43
0.0000000001
 40
0.0
 40
0.0
 40
0.0
 40
0.0
 40
1.0
 40
1.0
 40
1.0
 40
1.0
 10
38.53235947387385
 20
-181.4369872593282
 30
0.0
 10
98.65685490155107
 20
-172.8735134116427
 30
0.0
 10
207.9184027257982
 20
-164.0003254798333
 30
0.0
 10
323.9995170630974
 20
-164.0003254798333
 30
0.0
  0
POLYLINE
  5
195
330
1F
100
AcDbEntity
  8
sideviews
 62
     3
370
    35
100
AcDb2dPolyline
 66
     1
 10
0.0
 20
0.0
 30
0.0
  0
VERTEX
  5
196
330
195
100
AcDbEntity
  8
sideviews
 62
     3
370
    35
100
AcDbVertex
100
AcDb2dVertex
 10
8.99962293611815
 20
-196.869981504602
 30
0.0
  0
VERTEX
  5
197
330
195
100
AcDbEntity
  8
sideviews
 62
     3
370
    35
100
AcDbVertex
100
AcDb2dVertex
 10
8.99962293611815
 20
-214.2373968648434
 30
0.0
  0
SEQEND
  5
198
330
195
100
AcDbEntity
  8
sideviews
370
    35
  0
SPLINE
  5
199
330
1F
100
AcDbEntity
  8
sideviews
 62
     3
370
    35
100
AcDbSpline
210
0.0
220
0.0
230
1.0
 70
     8
 71
     3
 72
     8
 73
     4
 74
     0
 42
0.0000000001
 43
0.0000000001
 40
0.0
 40
0.0
 40
0.0
 40
0.0
 40
1.0
 40
1.0
 40
1.0
 40
1.0
 10
8.99962293611815
 20
-196.869981504602
 30
0.0
 10
8.99962293611815
 20
-192.7765190490281
 30
0.0
 10
9.081099444344309
 20
-185.9338703962249
 30
0.0
 10
38.53235947387385
 20
-181.4369872593282
 30
0.0
  0
POLYLINE
  5
19A
330
1F
100
AcDbEntity
  8
sideviews
 62
     3
370
    35
100
AcDb2dPolyline
 66
     1
 10
0.0
 20
0.0
 30
0.0
  0
VERTEX
  5
19B
330
19A
100
AcDbEntity
  8
sideviews
 62
     3
370
    35
100
AcDbVertex
100
AcDb2dVertex
 10
88.99990774684726
 20
-223.9367186940158
 30
0.0
  0
VERTEX
  5
19C
330
19A
100
AcDbEntity
  8
sideviews
 62
     3
370
    35
100
AcDbVertex
100
AcDb2dVertex
 10
88.99990774684726
 20
-230.936808210495
 30
0.0
  0
SEQEND
  5
19D
330
19A
100
AcDbEntity
  8
sideviews
370
    35
  0
POLYLINE
  5
19E
330
1F
100
AcDbEntity
  8
sideviews
 62
     3
370
    35
100
AcDb2dPolyline
 66
     1
 10
0.0
 20
0.0
 30
0.0
  0
VERTEX
  5
19F
330
19E
100
AcDbEntity
  8
sideviews
 62
     3
370
    35
100
AcDbVertex
100
AcDb2dVertex
 10
138.9999565624722
 20
-230.936808210495
 30
0.0
  0
VERTEX
  5
1A0
330
19E
100
AcDbEntity
  8
sideviews
 62
     3
370
    35
100
AcDbVertex
100
AcDb2dVertex
 10
138.9999565624722
 20
-223.9367186940158
 30
0.0
  0
SEQEND
  5
1A1
330
19E
100
AcDbEntity
  8
sideviews
370
    35
  0
POLYLINE
  5
1A2
330
1F
100
AcDbEntity
  8
sideviews
 62
     3
370
    35
100
AcDb2dPolyline
 66
     1
 10
0.0
 20
0.0
 30
0.0
  0
VERTEX
  5
1A3
330
1A2
100
AcDbEntity
  8
sideviews
 62
     3
370
    35
100
AcDbVertex
100
AcDb2dVertex
 10
88.99990774684726
 20
-223.9370632035643
 30
0.0
  0
VERTEX
  5
1A4
330
1A2
100
AcDbEntity
  8
sideviews
 62
     3
370
    35
100
AcDbVertex
100
AcDb2dVertex
 10
117.9996880130348
 20
-223.9370632035643
 30
0.0
  0
SEQEND
  5
1A5
330
1A2
100
AcDbEntity
  8
sideviews
370
    35
  0
POLYLINE
  5
1A6
330
1F
100
AcDbEntity
  8
sideviews
 62
     3
370
    35
100
AcDb2dPolyline
 66
     1
 10
0.0
 20
0.0
 30
0.0
  0
VERTEX
  5
1A7
330
1A6
100
AcDbEntity
  8
sideviews
 62
     3
370
    35
100
AcDbVertex
100
AcDb2dVertex
 10
134.0631347321092
 20
-199.1933538998545
 30
0.0
  0
VERTEX
  5
1A8
330
1A6
100
AcDbEntity
  8
sideviews
 62
     3
370
    35
100
AcDbVertex
100
AcDb2dVertex
 10
134.0631347321092
 20
-223.8846977521886
 30
0.0
  0
SEQEND
  5
1A9
330
1A6
100
AcDbEntity
  8
sideviews
370
    35
  0
POLYLINE
  5
1AA
330
1F
100
AcDbEntity
  8
sideviews
 62
     3
370
    35
100
AcDb2dPolyline
 66
     1
 10
0.0
 20
0.0
 30
0.0
  0
VERTEX
  5
1AB
330
1AA
100
AcDbEntity
  8
sideviews
 62
     3
370
    35
100
AcDbVertex
100
AcDb2dVertex
 10
118.0637667890605
 20
-223.8846977521886
 30
0.0
  0
VERTEX
  5
1AC
330
1AA
100
AcDbEntity
  8
sideviews
 62
     3
370
    35
100
AcDbVertex
100
AcDb2dVertex
 10
118.0637667890605
 20
-199.1933538998545
 30
0.0
  0
SEQEND
  5
1AD
330
1AA
100
AcDbEntity
  8
sideviews
370
    35
  0
POLYLINE
  5
1AE
330
1F
100
AcDbEntity
  8
sideviews
 62
     3
370
    35
100
AcDb2dPolyline
 66
     1
 10
0.0
 20
0.0
 30
0.0
  0
VERTEX
  5
1AF
330
1AE
100
AcDbEntity
  8
sideviews
 62
     3
370
    35
100
AcDbVertex
100
AcDb2dVertex
 10
138.9999565624722
 20
-223.9367186940158
 30
0.0
  0
VERTEX
  5
1B0
330
1AE
100
AcDbEntity
  8
sideviews
 62
     3
370
    35
100
AcDbVertex
100
AcDb2dVertex
 10
133.9997449751806
 20
-223.9367186940158
 30
0.0
  0
SEQEND
  5
1B1
330
1AE
100
AcDbEntity
  8
sideviews
370
    35
  0
SPLINE
  5
1B2
330
1F
100
AcDbEntity
  8
sideviews
 62
     3
370
    35
100
AcDbSpline
210
0.0
220
0.0
230
1.0
 70
     8
 71
     3
 72
     8
 73
     4
 74
     0
 42
0.0000000001
 43
0.0000000001
 40
0.0
 40
0.0
 40
0.0
 40
0.0
 40
1.0
 40
1.0
 40
1.0
 40
1.0
 10
118.0637667890605
 20
-199.1933538998545
 30
0.0
 10
118.0637667890605
 20
-194.7615830676291
 30
0.0
 10
134.0631347321092
 20
-194.802235194355
 30
0.0
 10
134.0631347321092
 20
-199.1933538998545
 30
0.0
  0
SPLINE
  5
1B3
330
1F
100
AcDbEntity
  8
sideviews
 62
     3
370
    35
100
AcDbSpline
210
0.0
220
0.0
230
1.0
 70
     8
 71
     3
 72
    11
 73
     7
 74
     0
 42
0.0000000001
 43
0.0000000001
 40
0.0
 40
0.0
 40
0.0
 40
0.0
 40
1.0
 40
1.0
 40
1.0
 40
2.0
 40
2.0
 40
2.0
 40
2.0
 10
501.0698457948715
 20
-206.8504231253707
 30
0.0
 10
501.0698457948715
 20
-196.3718206974348
 30
0.0
 10
492.5632160226925
 20
-187.879660326294
 30
0.0
 10
482.0694551746216
 20
-187.879660326294
 30
0.0
 10
471.5763833456476
 20
-187.879660326294
 30
0.0
 10
463.0697535734687
 20
-196.3718206974348
 30
0.0
 10
463.0697535734687
 20
-206.8504231253707
 30
0.0
  0
POLYLINE
  5
1B4
330
1F
100
AcDbEntity
  8
sideviews
 62
     3
370
    35
100
AcDb2dPolyline
 66
     1
 10
0.0
 20
0.0
 30
0.0
  0
VERTEX
  5
1B5
330
1B4
100
AcDbEntity
  8
sideviews
 62
     3
370
    35
100
AcDbVertex
100
AcDb2dVertex
 10
463.0697535734687
 20
-206.8504231253707
 30
0.0
  0
VERTEX
  5
1B6
330
1B4
100
AcDbEntity
  8
sideviews
 62
     3
370
    35
100
AcDbVertex
100
AcDb2dVertex
 10
463.0697535734687
 20
-230.8696288485326
 30
0.0
  0
SEQEND
  5
1B7
330
1B4
100
AcDbEntity
  8
sideviews
370
    35
  0
POLYLINE
  5
1B8
330
1F
100
AcDbEntity
  8
sideviews
 62
     3
370
    35
100
AcDb2dPolyline
 66
     1
 10
0.0
 20
0.0
 30
0.0
  0
VERTEX
  5
1B9
330
1B8
100
AcDbEntity
  8
sideviews
 62
     3
370
    35
100
AcDbVertex
100
AcDb2dVertex
 10
501.0698457948715
 20
-206.8504231253707
 30
0.0
  0
VERTEX
  5
1BA
330
1B8
100
AcDbEntity
  8
sideviews
 62
     3
370
    35
100
AcDbVertex
100
AcDb2dVertex
 10
500.9995658469724
 20
-229.6700466005686
 30
0.0
  0
SEQEND
  5
1BB
330
1B8
100
AcDbEntity
  8
sideviews
370
    35
  0
SPLINE
  5
1BC
330
1F
100
AcDbEntity
  8
sideviews
 62
     3
370
    35
100
AcDbSpline
210
0.0
220
0.0
230
1.0
 70
     8
 71
     3
 72
     8
 73
     4
 74
     0
 42
0.0000000001
 43
0.0000000001
 40
0.0
 40
0.0
 40
0.0
 40
0.0
 40
1.0
 40
1.0
 40
1.0
 40
1.0
 10
500.9995658469724
 20
-229.7699543696409
 30
0.0
 10
527.5350693125607
 20
-229.109874074667
 30
0.0
 10
562.8569443037302
 20
-228.1838324082318
 30
0.0
 10
581.9999618770695
 20
-214.369688531477
 30
0.0
  0
SPLINE
  5
1BD
330
1F
100
AcDbEntity
  8
sideviews
 62
     3
370
    35
100
AcDbSpline
210
0.0
220
0.0
230
1.0
 70
    11
 71
     3
 72
    17
 73
    13
 74
     0
 42
0.0000000001
 43
0.0000000001
 40
0.0
 40
0.0
 40
0.0
 40
0.0
 40
1.0
 40
1.0
 40
1.0
 40
2.0
 40
2.0
 40
2.0
 40
3.0
 40
3.0
 40
3.0
 40
4.0
 40
4.0
 40
4.0
 40
4.0
 10
340.0509059479734
 20
-203.9455186122081
 30
0.0
 10
340.0509059479734
 20
-212.225116591909
 30
0.0
 10
346.7702201824047
 20
-218.9361625971757
 30
0.0
 10
355.0560193339791
 20
-218.9361625971757
 30
0.0
 10
363.343541033296
 20
-218.9361625971757
 30
0.0
 10
370.0614772295332
 20
-212.225116591909
 30
0.0
 10
370.0614772295332
 20
-203.9455186122081
 30
0.0
 10
370.0614772295332
 20
-195.6659206325072
 30
0.0
 10
363.343541033296
 20
-188.9541856081434
 30
0.0
 10
355.0560193339791
 20
-188.9541856081434
 30
0.0
 10
346.7695311633076
 20
-188.9541856081434
 30
0.0
 10
340.0509059479734
 20
-195.6659206325072
 30
0.0
 10
340.0509059479734
 20
-203.9455186122081
 30
0.0
  0
SPLINE
  5
1BE
330
1F
100
AcDbEntity
  8
sideviews
 62
     3
370
    35
100
AcDbSpline
210
0.0
220
0.0
230
1.0
 70
    11
 71
     3
 72
    17
 73
    13
 74
     0
 42
0.0000000001
 43
0.0000000001
 40
0.0
 40
0.0
 40
0.0
 40
0.0
 40
1.0
 40
1.0
 40
1.0
 40
2.0
 40
2.0
 40
2.0
 40
3.0
 40
3.0
 40
3.0
 40
4.0
 40
4.0
 40
4.0
 40
4.0
 10
410.0762612907101
 20
-203.9455186122081
 30
0.0
 10
410.0762612907101
 20
-195.6659206325072
 30
0.0
 10
403.3583250944729
 20
-188.9541856081434
 30
0.0
 10
395.07218143335
 20
-188.9541856081434
 30
0.0
 10
386.7832816958389
 20
-188.9541856081434
 30
0.0
 10
380.0646564805047
 20
-195.6659206325072
 30
0.0
 10
380.0646564805047
 20
-203.9455186122081
 30
0.0
 10
380.0646564805047
 20
-212.225116591909
 30
0.0
 10
386.7832816958389
 20
-218.9368516162727
 30
0.0
 10
395.07218143335
 20
-218.9368516162727
 30
0.0
 10
403.3583250944729
 20
-218.9368516162727
 30
0.0
 10
410.0762612907101
 20
-212.225116591909
 30
0.0
 10
410.0762612907101
 20
-203.9455186122081
 30
0.0
  0
SPLINE
  5
1BF
330
1F
100
AcDbEntity
  8
sideviews
 62
     3
370
    35
100
AcDbSpline
210
0.0
220
0.0
230
1.0
 70
    11
 71
     3
 72
    17
 73
    13
 74
     0
 42
0.0000000001
 43
0.0000000001
 40
0.0
 40
0.0
 40
0.0
 40
0.0
 40
1.0
 40
1.0
 40
1.0
 40
2.0
 40
2.0
 40
2.0
 40
3.0
 40
3.0
 40
3.0
 40
4.0
 40
4.0
 40
4.0
 40
4.0
 10
260.0206488065226
 20
-203.9455186122081
 30
0.0
 10
260.0206488065226
 20
-212.225116591909
 30
0.0
 10
266.7399630409539
 20
-218.9361625971757
 30
0.0
 10
275.0254176829798
 20
-218.9361625971757
 30
0.0
 10
283.3139729109424
 20
-218.9361625971757
 30
0.0
 10
290.0319091071796
 20
-212.225116591909
 30
0.0
 10
290.0319091071796
 20
-203.9455186122081
 30
0.0
 10
290.0319091071796
 20
-195.6659206325072
 30
0.0
 10
283.3139729109424
 20
-188.9541856081434
 30
0.0
 10
275.0254176829798
 20
-188.9541856081434
 30
0.0
 10
266.7392740218569
 20
-188.9541856081434
 30
0.0
 10
260.0206488065226
 20
-195.6659206325072
 30
0.0
 10
260.0206488065226
 20
-203.9455186122081
 30
0.0
  0
SPLINE
  5
1C0
330
1F
100
AcDbEntity
  8
sideviews
 62
     3
370
    35
100
AcDbSpline
210
0.0
220
0.0
230
1.0
 70
    11
 71
     3
 72
    17
 73
    13
 74
     0
 42
0.0000000001
 43
0.0000000001
 40
0.0
 40
0.0
 40
0.0
 40
0.0
 40
1.0
 40
1.0
 40
1.0
 40
2.0
 40
2.0
 40
2.0
 40
3.0
 40
3.0
 40
3.0
 40
4.0
 40
4.0
 40
4.0
 40
4.0
 10
330.0456596397108
 20
-203.9455186122081
 30
0.0
 10
330.0456596397108
 20
-195.6659206325072
 30
0.0
 10
323.3270344243766
 20
-188.9541856081434
 30
0.0
 10
315.0405462537051
 20
-188.9541856081434
 30
0.0
 10
306.7519910257426
 20
-188.9541856081434
 30
0.0
 10
300.0347438486024
 20
-195.6659206325072
 30
0.0
 10
300.0347438486024
 20
-203.9455186122081
 30
0.0
 10
300.0347438486024
 20
-212.225116591909
 30
0.0
 10
306.7519910257426
 20
-218.9368516162727
 30
0.0
 10
315.0405462537051
 20
-218.9368516162727
 30
0.0
 10
323.3270344243766
 20
-218.9368516162727
 30
0.0
 10
330.0456596397108
 20
-212.225116591909
 30
0.0
 10
330.0456596397108
 20
-203.9455186122081
 30
0.0
  0
SPLINE
  5
1C1
330
1F
100
AcDbEntity
  8
sideviews
 62
     3
370
    35
100
AcDbSpline
210
0.0
220
0.0
230
1.0
 70
    11
 71
     3
 72
    17
 73
    13
 74
     0
 42
0.0000000001
 43
0.0000000001
 40
0.0
 40
0.0
 40
0.0
 40
0.0
 40
1.0
 40
1.0
 40
1.0
 40
2.0
 40
2.0
 40
2.0
 40
3.0
 40
3.0
 40
3.0
 40
4.0
 40
4.0
 40
4.0
 40
4.0
 10
250.0160915173571
 20
-203.9458631217566
 30
0.0
 10
250.0160915173571
 20
-195.6659206325072
 30
0.0
 10
243.2978108115714
 20
-188.9541856081434
 30
0.0
 10
235.0113226408999
 20
-188.9541856081434
 30
0.0
 10
226.7227674129374
 20
-188.9541856081434
 30
0.0
 10
220.0044867071517
 20
-195.6659206325072
 30
0.0
 10
220.0044867071517
 20
-203.9458631217566
 30
0.0
 10
220.0044867071517
 20
-212.2261501205546
 30
0.0
 10
226.7227674129374
 20
-218.9368516162727
 30
0.0
 10
235.0113226408999
 20
-218.9368516162727
 30
0.0
 10
243.2978108115714
 20
-218.9368516162727
 30
0.0
 10
250.0160915173571
 20
-212.2261501205546
 30
0.0
 10
250.0160915173571
 20
-203.9458631217566
 30
0.0
  0
SPLINE
  5
1C2
330
1F
100
AcDbEntity
  8
sideviews
 62
     3
370
    35
100
AcDbSpline
210
0.0
220
0.0
230
1.0
 70
     8
 71
     3
 72
    11
 73
     7
 74
     0
 42
0.0000000001
 43
0.0000000001
 40
0.0
 40
0.0
 40
0.0
 40
0.0
 40
1.0
 40
1.0
 40
1.0
 40
2.0
 40
2.0
 40
2.0
 40
2.0
 10
435.0001490882986
 20
-188.9369601307172
 30
0.0
 10
426.7119383698845
 20
-188.9369601307172
 30
0.0
 10
419.9933131545503
 20
-195.6486951550809
 30
0.0
 10
419.9933131545503
 20
-203.9279486252333
 30
0.0
 10
419.9933131545503
 20
-212.2082356240313
 30
0.0
 10
426.7119383698845
 20
-218.9196261388465
 30
0.0
 10
435.0001490882986
 20
-218.9196261388465
 30
0.0
  0
SPLINE
  5
1C3
330
1F
100
AcDbEntity
  8
sideviews
 62
     3
370
    35
100
AcDbSpline
210
0.0
220
0.0
230
1.0
 70
     8
 71
     3
 72
     8
 73
     4
 74
     0
 42
0.0000000001
 43
0.0000000001
 40
0.0
 40
0.0
 40
0.0
 40
0.0
 40
1.0
 40
1.0
 40
1.0
 40
1.0
 10
159.0001138925416
 20
-218.9103243810363
 30
0.0
 10
165.9033962258853
 20
-218.9103243810363
 30
0.0
 10
171.4996093321251
 20
-213.3203124466699
 30
0.0
 10
171.4996093321251
 20
-206.4211642279086
 30
0.0
  0
SPLINE
  5
1C4
330
1F
100
AcDbEntity
  8
sideviews
 62
     3
370
    35
100
AcDbSpline
210
0.0
220
0.0
230
1.0
 70
     8
 71
     3
 72
     8
 73
     4
 74
     0
 42
0.0000000001
 43
0.0000000001
 40
0.0
 40
0.0
 40
0.0
 40
0.0
 40
1.0
 40
1.0
 40
1.0
 40
1.0
 10
171.4996093321251
 20
-206.4211642279086
 30
0.0
 10
171.4996093321251
 20
-199.5240830664384
 30
0.0
 10
165.9033962258853
 20
-193.9323485843294
 30
0.0
 10
159.0001138925416
 20
-193.9323485843294
 30
0.0
  0
SPLINE
  5
1C5
330
1F
100
AcDbEntity
  8
sideviews
 62
     3
370
    35
100
AcDbSpline
210
0.0
220
0.0
230
1.0
 70
    11
 71
     3
 72
    17
 73
    13
 74
     0
 42
0.0000000001
 43
0.0000000001
 40
0.0
 40
0.0
 40
0.0
 40
0.0
 40
1.0
 40
1.0
 40
1.0
 40
2.0
 40
2.0
 40
2.0
 40
3.0
 40
3.0
 40
3.0
 40
4.0
 40
4.0
 40
4.0
 40
4.0
 10
210.0071641185052
 20
-203.9241590201995
 30
0.0
 10
210.0071641185052
 20
-195.6469726073383
 30
0.0
 10
203.2902614509136
 20
-188.9369601307172
 30
0.0
 10
195.0054958279848
 20
-188.9369601307172
 30
0.0
 10
186.7183186382163
 20
-188.9369601307172
 30
0.0
 10
180.0017604801732
 20
-195.6469726073383
 30
0.0
 10
180.0017604801732
 20
-203.9241590201995
 30
0.0
 10
180.0017604801732
 20
-212.2016899426093
 30
0.0
 10
186.7183186382163
 20
-218.9103243810363
 30
0.0
 10
195.0054958279848
 20
-218.9103243810363
 30
0.0
 10
203.2902614509136
 20
-218.9103243810363
 30
0.0
 10
210.0071641185052
 20
-212.2016899426093
 30
0.0
 10
210.0071641185052
 20
-203.9241590201995
 30
0.0
  0
POLYLINE
  5
1C6
330
1F
100
AcDbEntity
  8
sideviews
 62
     3
370
    35
100
AcDb2dPolyline
 66
     1
 10
0.0
 20
0.0
 30
0.0
  0
VERTEX
  5
1C7
330
1C6
100
AcDbEntity
  8
sideviews
 62
     3
370
    35
100
AcDbVertex
100
AcDb2dVertex
 10
49.03990070388586
 20
-230.8434461228447
 30
0.0
  0
VERTEX
  5
1C8
330
1C6
100
AcDbEntity
  8
sideviews
 62
     3
370
    35
100
AcDbVertex
100
AcDb2dVertex
 10
88.99887421820168
 20
-230.936808210495
 30
0.0
  0
SEQEND
  5
1C9
330
1C6
100
AcDbEntity
  8
sideviews
370
    35
  0
POLYLINE
  5
1CA
330
1F
100
AcDbEntity
  8
sideviews
 62
     3
370
    35
100
AcDb2dPolyline
 66
     1
 10
0.0
 20
0.0
 30
0.0
  0
VERTEX
  5
1CB
330
1CA
100
AcDbEntity
  8
sideviews
 62
     3
370
    35
100
AcDbVertex
100
AcDb2dVertex
 10
138.9989230338267
 20
-230.8703178676297
 30
0.0
  0
VERTEX
  5
1CC
330
1CA
100
AcDbEntity
  8
sideviews
 62
     3
370
    35
100
AcDbVertex
100
AcDb2dVertex
 10
159.9995360928126
 20
-230.936808210495
 30
0.0
  0
SEQEND
  5
1CD
330
1CA
100
AcDbEntity
  8
sideviews
370
    35
  0
POLYLINE
  5
1CE
330
1F
100
AcDbEntity
  8
sideviews
 62
     3
370
    35
100
AcDb2dPolyline
 66
     1
 10
0.0
 20
0.0
 30
0.0
  0
VERTEX
  5
1CF
330
1CE
100
AcDbEntity
  8
sideviews
 62
     3
370
    35
100
AcDbVertex
100
AcDb2dVertex
 10
435.0001490882986
 20
-188.9369601307172
 30
0.0
  0
VERTEX
  5
1D0
330
1CE
100
AcDbEntity
  8
sideviews
 62
     3
370
    35
100
AcDbVertex
100
AcDb2dVertex
 10
435.0001490882986
 20
-218.9196261388465
 30
0.0
  0
SEQEND
  5
1D1
330
1CE
100
AcDbEntity
  8
sideviews
370
    35
  0
POLYLINE
  5
1D2
330
1F
100
AcDbEntity
  8
sideviews
 62
     3
370
    35
100
AcDb2dPolyline
 66
     1
 10
0.0
 20
0.0
 30
0.0
  0
VERTEX
  5
1D3
330
1D2
100
AcDbEntity
  8
sideviews
 62
     3
370
    35
100
AcDbVertex
100
AcDb2dVertex
 10
159.9995360928126
 20
-230.936808210495
 30
0.0
  0
VERTEX
  5
1D4
330
1D2
100
AcDbEntity
  8
sideviews
 62
     3
370
    35
100
AcDbVertex
100
AcDb2dVertex
 10
159.9995360928126
 20
-225.9369411327519
 30
0.0
  0
VERTEX
  5
1D5
330
1D2
100
AcDbEntity
  8
sideviews
 62
     3
370
    35
100
AcDbVertex
100
AcDb2dVertex
 10
435.0001490882986
 20
-225.9369411327519
 30
0.0
  0
VERTEX
  5
1D6
330
1D2
100
AcDbEntity
  8
sideviews
 62
     3
370
    35
100
AcDbVertex
100
AcDb2dVertex
 10
435.0001490882986
 20
-230.936808210495
 30
0.0
  0
SEQEND
  5
1D7
330
1D2
100
AcDbEntity
  8
sideviews
370
    35
  0
POLYLINE
  5
1D8
330
1F
100
AcDbEntity
  8
sideviews
 62
     3
370
    35
100
AcDb2dPolyline
 66
     1
 10
0.0
 20
0.0
 30
0.0
  0
VERTEX
  5
1D9
330
1D8
100
AcDbEntity
  8
sideviews
 62
     3
370
    35
100
AcDbVertex
100
AcDb2dVertex
 10
435.0001490882986
 20
-230.936808210495
 30
0.0
  0
VERTEX
  5
1DA
330
1D8
100
AcDbEntity
  8
sideviews
 62
     3
370
    35
100
AcDbVertex
100
AcDb2dVertex
 10
463.0697535734687
 20
-230.8696288485326
 30
0.0
  0
SEQEND
  5
1DB
330
1D8
100
AcDbEntity
  8
sideviews
370
    35
  0
POLYLINE
  5
1DC
330
1F
100
AcDbEntity
  8
sideviews
 62
     3
370
    35
100
AcDb2dPolyline
 66
     1
 10
0.0
 20
0.0
 30
0.0
  0
VERTEX
  5
1DD
330
1DC
100
AcDbEntity
  8
sideviews
 62
     3
370
    35
100
AcDbVertex
100
AcDb2dVertex
 10
159.0001138925416
 20
-193.9323485843294
 30
0.0
  0
VERTEX
  5
1DE
330
1DC
100
AcDbEntity
  8
sideviews
 62
     3
370
    35
100
AcDbVertex
100
AcDb2dVertex
 10
159.0001138925416
 20
-218.9103243810363
 30
0.0
  0
SEQEND
  5
1DF
330
1DC
100
AcDbEntity
  8
sideviews
370
    35
  0
POLYLINE
  5
1E0
330
1F
100
AcDbEntity
  8
sideviews
 62
     3
370
    35
100
AcDb2dPolyline
 66
     1
 10
0.0
 20
0.0
 30
0.0
  0
VERTEX
  5
1E1
330
1E0
100
AcDbEntity
  8
sideviews
 62
     3
370
    35
100
AcDbVertex
100
AcDb2dVertex
 10
19.28530001688006
 20
-214.2373968648434
 30
0.0
  0
VERTEX
  5
1E2
330
1E0
100
AcDbEntity
  8
sideviews
 62
     3
370
    35
100
AcDbVertex
100
AcDb2dVertex
 10
49.28553601198417
 20
-214.2373968648434
 30
0.0
  0
SEQEND
  5
1E3
330
1E0
100
AcDbEntity
  8
sideviews
370
    35
  0
POLYLINE
  5
1E4
330
1F
100
AcDbEntity
  8
sideviews
 62
     3
370
    35
100
AcDb2dPolyline
 66
     1
 10
0.0
 20
0.0
 30
0.0
  0
VERTEX
  5
1E5
330
1E4
100
AcDbEntity
  8
sideviews
 62
     3
370
    35
100
AcDbVertex
100
AcDb2dVertex
 10
49.28553601198417
 20
-214.2373968648434
 30
0.0
  0
VERTEX
  5
1E6
330
1E4
100
AcDbEntity
  8
sideviews
 62
     3
370
    35
100
AcDbVertex
100
AcDb2dVertex
 10
49.28553601198417
 20
-230.7769557799794
 30
0.0
  0
SEQEND
  5
1E7
330
1E4
100
AcDbEntity
  8
sideviews
370
    35
  0
POLYLINE
  5
1E8
330
1F
100
AcDbEntity
  8
sideviews
 62
     3
370
    35
100
AcDb2dPolyline
 66
     1
 10
0.0
 20
0.0
 30
0.0
  0
VERTEX
  5
1E9
330
1E8
100
AcDbEntity
  8
sideviews
 62
     3
370
    35
100
AcDbVertex
100
AcDb2dVertex
 10
19.28530001688006
 20
-214.2373968648434
 30
0.0
  0
VERTEX
  5
1EA
330
1E8
100
AcDbEntity
  8
sideviews
 62
     3
370
    35
100
AcDbVertex
100
AcDb2dVertex
 10
19.28530001688006
 20
-230.936808210495
 30
0.0
  0
SEQEND
  5
1EB
330
1E8
100
AcDbEntity
  8
sideviews
370
    35
  0
POLYLINE
  5
1EC
330
1F
100
AcDbEntity
  8
sideviews
 62
     3
370
    35
100
AcDb2dPolyline
 66
     1
 10
0.0
 20
0.0
 30
0.0
  0
VERTEX
  5
1ED
330
1EC
100
AcDbEntity
  8
sideviews
 62
     3
370
    35
100
AcDbVertex
100
AcDb2dVertex
 10
9.081099444344309
 20
-230.936808210495
 30
0.0
  0
VERTEX
  5
1EE
330
1EC
100
AcDbEntity
  8
sideviews
 62
     3
370
    35
100
AcDbVertex
100
AcDb2dVertex
 10
19.08100585460475
 20
-230.936808210495
 30
0.0
  0
SEQEND
  5
1EF
330
1EC
100
AcDbEntity
  8
sideviews
370
    35
  0
SPLINE
  5
1F0
330
1F
100
AcDbEntity
  8
sideviews
 62
     3
370
    35
100
AcDbSpline
210
0.0
220
0.0
230
1.0
 70
    11
 71
     3
 72
    17
 73
    13
 74
     0
 42
0.0000000001
 43
0.0000000001
 40
0.0
 40
0.0
 40
0.0
 40
0.0
 40
1.0
 40
1.0
 40
1.0
 40
2.0
 40
2.0
 40
2.0
 40
3.0
 40
3.0
 40
3.0
 40
4.0
 40
4.0
 40
4.0
 40
4.0
 10
172.5000650610417
 20
-181.1868733270991
 30
0.0
 10
172.5000650610417
 20
-182.5676675975872
 30
0.0
 10
171.380753537884
 20
-183.6866346111964
 30
0.0
 10
169.9999592673958
 20
-183.6866346111964
 30
0.0
 10
168.6191649969077
 20
-183.6866346111964
 30
0.0
 10
167.4998534737501
 20
-182.5676675975872
 30
0.0
 10
167.4998534737501
 20
-181.1868733270991
 30
0.0
 10
167.4998534737501
 20
-179.806079056611
 30
0.0
 10
168.6191649969077
 20
-178.6871120430018
 30
0.0
 10
169.9999592673958
 20
-178.6871120430018
 30
0.0
 10
171.380753537884
 20
-178.6871120430018
 30
0.0
 10
172.5000650610417
 20
-179.806079056611
 30
0.0
 10
172.5000650610417
 20
-181.1868733270991
 30
0.0
  0
SPLINE
  5
1F1
330
1F
100
AcDbEntity
  8
sideviews
 62
     3
370
    35
100
AcDbSpline
210
0.0
220
0.0
230
1.0
 70
    11
 71
     3
 72
    17
 73
    13
 74
     0
 42
0.0000000001
 43
0.0000000001
 40
0.0
 40
0.0
 40
0.0
 40
0.0
 40
1.0
 40
1.0
 40
1.0
 40
2.0
 40
2.0
 40
2.0
 40
3.0
 40
3.0
 40
3.0
 40
4.0
 40
4.0
 40
4.0
 40
4.0
 10
172.5000650610417
 20
-181.1868733270991
 30
0.0
 10
172.5000650610417
 20
-182.5676675975872
 30
0.0
 10
171.380753537884
 20
-183.6866346111964
 30
0.0
 10
169.9999592673958
 20
-183.6866346111964
 30
0.0
 10
168.6191649969077
 20
-183.6866346111964
 30
0.0
 10
167.4998534737501
 20
-182.5676675975872
 30
0.0
 10
167.4998534737501
 20
-181.1868733270991
 30
0.0
 10
167.4998534737501
 20
-179.806079056611
 30
0.0
 10
168.6191649969077
 20
-178.6871120430018
 30
0.0
 10
169.9999592673958
 20
-178.6871120430018
 30
0.0
 10
171.380753537884
 20
-178.6871120430018
 30
0.0
 10
172.5000650610417
 20
-179.806079056611
 30
0.0
 10
172.5000650610417
 20
-181.1868733270991
 30
0.0
  0
SPLINE
  5
1F2
330
1F
100
AcDbEntity
  8
sideviews
 62
     3
370
    35
100
AcDbSpline
210
0.0
220
0.0
230
1.0
 70
    11
 71
     3
 72
    17
 73
    13
 74
     0
 42
0.0000000001
 43
0.0000000001
 40
0.0
 40
0.0
 40
0.0
 40
0.0
 40
1.0
 40
1.0
 40
1.0
 40
2.0
 40
2.0
 40
2.0
 40
3.0
 40
3.0
 40
3.0
 40
4.0
 40
4.0
 40
4.0
 40
4.0
 10
440.3500378673431
 20
-169.9369140200158
 30
0.0
 10
440.3500378673431
 20
-171.3177082905039
 30
0.0
 10
439.2307263441854
 20
-172.4366753041131
 30
0.0
 10
437.8499320736972
 20
-172.4366753041131
 30
0.0
 10
436.4691378032092
 20
-172.4366753041131
 30
0.0
 10
435.3498262800514
 20
-171.3177082905039
 30
0.0
 10
435.3498262800514
 20
-169.9369140200158
 30
0.0
 10
435.3498262800514
 20
-168.5561197495277
 30
0.0
 10
436.4691378032092
 20
-167.4371527359185
 30
0.0
 10
437.8499320736972
 20
-167.4371527359185
 30
0.0
 10
439.2307263441854
 20
-167.4371527359185
 30
0.0
 10
440.3500378673431
 20
-168.5561197495277
 30
0.0
 10
440.3500378673431
 20
-169.9369140200158
 30
0.0
  0
SPLINE
  5
1F3
330
1F
100
AcDbEntity
  8
sideviews
 62
     3
370
    35
100
AcDbSpline
210
0.0
220
0.0
230
1.0
 70
    11
 71
     3
 72
    17
 73
    13
 74
     0
 42
0.0000000001
 43
0.0000000001
 40
0.0
 40
0.0
 40
0.0
 40
0.0
 40
1.0
 40
1.0
 40
1.0
 40
2.0
 40
2.0
 40
2.0
 40
3.0
 40
3.0
 40
3.0
 40
4.0
 40
4.0
 40
4.0
 40
4.0
 10
440.3500378673431
 20
-169.9369140200158
 30
0.0
 10
440.3500378673431
 20
-171.3177082905039
 30
0.0
 10
439.2307263441854
 20
-172.4366753041131
 30
0.0
 10
437.8499320736972
 20
-172.4366753041131
 30
0.0
 10
436.4691378032092
 20
-172.4366753041131
 30
0.0
 10
435.3498262800514
 20
-171.3177082905039
 30
0.0
 10
435.3498262800514
 20
-169.9369140200158
 30
0.0
 10
435.3498262800514
 20
-168.5561197495277
 30
0.0
 10
436.4691378032092
 20
-167.4371527359185
 30
0.0
 10
437.8499320736972
 20
-167.4371527359185
 30
0.0
 10
439.2307263441854
 20
-167.4371527359185
 30
0.0
 10
440.3500378673431
 20
-168.5561197495277
 30
0.0
 10
440.3500378673431
 20
-169.9369140200158
 30
0.0
  0
INSERT
  5
1F5
330
1F
100
AcDbEntity
  8
sideviews
100
AcDbBlockReference
  2
block 2
 10
0.0
 20
0.0
 30
0.0
  0
SPLINE
  5
1F9
330
1F
100
AcDbEntity
  8
sideviews
 62
     3
370
    35
100
AcDbSpline
210
0.0
220
0.0
230
1.0
 70
     8
 71
     3
 72
     8
 73
     4
 74
     0
 42
0.0000000001
 43
0.0000000001
 40
0.0
 40
0.0
 40
0.0
 40
0.0
 40
1.0
 40
1.0
 40
1.0
 40
1.0
 10
321.9999836434583
 20
-233.0565754625692
 30
0.0
 10
374.8194986042118
 20
-233.2308972941229
 30
0.0
 10
525.0487439008559
 20
-234.5007594899859
 30
0.0
 10
581.9999618770695
 20
-237.5007486385415
 30
0.0
  0
POLYLINE
  5
1FA
330
1F
100
AcDbEntity
  8
sideviews
 62
     3
370
    35
100
AcDb2dPolyline
 66
     1
 10
0.0
 20
0.0
 30
0.0
  0
VERTEX
  5
1FB
330
1FA
100
AcDbEntity
  8
sideviews
 62
     3
370
    35
100
AcDbVertex
100
AcDb2dVertex
 10
39.86268309550308
 20
-259.0002115237916
 30
0.0
  0
VERTEX
  5
1FC
330
1FA
100
AcDbEntity
  8
sideviews
 62
     3
370
    35
100
AcDbVertex
100
AcDb2dVertex
 10
39.94450411327777
 20
-299.9999483842014
 30
0.0
  0
SEQEND
  5
1FD
330
1FA
100
AcDbEntity
  8
sideviews
370
    35
  0
POLYLINE
  5
1FE
330
1F
100
AcDbEntity
  8
sideviews
 62
     3
370
    35
100
AcDb2dPolyline
 66
     1
 10
0.0
 20
0.0
 30
0.0
  0
VERTEX
  5
1FF
330
1FE
100
AcDbEntity
  8
sideviews
 62
     3
370
    35
100
AcDbVertex
100
AcDb2dVertex
 10
581.944495839757
 20
-237.5007486385415
 30
0.0
  0
VERTEX
  5
200
330
1FE
100
AcDbEntity
  8
sideviews
 62
     3
370
    35
100
AcDbVertex
100
AcDb2dVertex
 10
581.944495839757
 20
-299.9999483842014
 30
0.0
  0
SEQEND
  5
201
330
1FE
100
AcDbEntity
  8
sideviews
370
    35
  0
POLYLINE
  5
202
330
1F
100
AcDbEntity
  8
sideviews
 62
     3
370
    35
100
AcDb2dPolyline
 66
     1
 10
0.0
 20
0.0
 30
0.0
  0
VERTEX
  5
203
330
202
100
AcDbEntity
  8
sideviews
 62
     3
370
    35
100
AcDbVertex
100
AcDb2dVertex
 10
581.9999618770695
 20
-299.9999483842014
 30
0.0
  0
VERTEX
  5
204
330
202
100
AcDbEntity
  8
sideviews
 62
     3
370
    35
100
AcDbVertex
100
AcDb2dVertex
 10
39.99997015059029
 20
-299.9999483842014
 30
0.0
  0
SEQEND
  5
205
330
202
100
AcDbEntity
  8
sideviews
370
    35
  0
SPLINE
  5
206
330
1F
100
AcDbEntity
  8
sideviews
 62
     3
370
    35
100
AcDbSpline
210
0.0
220
0.0
230
1.0
 70
     8
 71
     3
 72
     8
 73
     4
 74
     0
 42
0.0000000001
 43
0.0000000001
 40
0.0
 40
0.0
 40
0.0
 40
0.0
 40
1.0
 40
1.0
 40
1.0
 40
1.0
 10
39.86268309550308
 20
-259.0002115237916
 30
0.0
 10
39.86268309550308
 20
-255.4524521930813
 30
0.0
 10
39.86268309550308
 20
-245.6118814490137
 30
0.0
 10
69.75870495217838
 20
-242.113731493291
 30
0.0
  0
POLYLINE
  5
207
330
1F
100
AcDbEntity
  8
sideviews
 62
     3
370
    35
100
AcDb2dPolyline
 66
     1
 10
0.0
 20
0.0
 30
0.0
  0
VERTEX
  5
208
330
207
100
AcDbEntity
  8
sideviews
 62
     3
370
    35
100
AcDbVertex
100
AcDb2dVertex
 10
450.0000948310764
 20
-274.9995794668404
 30
0.0
  0
VERTEX
  5
209
330
207
100
AcDbEntity
  8
sideviews
 62
     3
370
    35
100
AcDbVertex
100
AcDb2dVertex
 10
450.0000948310764
 20
-299.9999483842014
 30
0.0
  0
SEQEND
  5
20A
330
207
100
AcDbEntity
  8
sideviews
370
    35
  0
POLYLINE
  5
20B
330
1F
100
AcDbEntity
  8
sideviews
 62
     3
370
    35
100
AcDb2dPolyline
 66
     1
 10
0.0
 20
0.0
 30
0.0
  0
VERTEX
  5
20C
330
20B
100
AcDbEntity
  8
sideviews
 62
     3
370
    35
100
AcDbVertex
100
AcDb2dVertex
 10
513.9999781701111
 20
-274.9995794668404
 30
0.0
  0
VERTEX
  5
20D
330
20B
100
AcDbEntity
  8
sideviews
 62
     3
370
    35
100
AcDbVertex
100
AcDb2dVertex
 10
513.9999781701111
 20
-299.9999483842014
 30
0.0
  0
SEQEND
  5
20E
330
20B
100
AcDbEntity
  8
sideviews
370
    35
  0
POLYLINE
  5
20F
330
1F
100
AcDbEntity
  8
sideviews
 62
     3
370
    35
100
AcDb2dPolyline
 66
     1
 10
0.0
 20
0.0
 30
0.0
  0
VERTEX
  5
210
330
20F
100
AcDbEntity
  8
sideviews
 62
     3
370
    35
100
AcDbVertex
100
AcDb2dVertex
 10
84.9996351241494
 20
-275.5563068972568
 30
0.0
  0
VERTEX
  5
211
330
20F
100
AcDbEntity
  8
sideviews
 62
     3
370
    35
100
AcDbVertex
100
AcDb2dVertex
 10
84.9996351241494
 20
-299.9999483842014
 30
0.0
  0
SEQEND
  5
212
330
20F
100
AcDbEntity
  8
sideviews
370
    35
  0
POLYLINE
  5
213
330
1F
100
AcDbEntity
  8
sideviews
 62
     3
370
    35
100
AcDb2dPolyline
 66
     1
 10
0.0
 20
0.0
 30
0.0
  0
VERTEX
  5
214
330
213
100
AcDbEntity
  8
sideviews
 62
     3
370
    35
100
AcDbVertex
100
AcDb2dVertex
 10
144.9997626048091
 20
-275.5563068972568
 30
0.0
  0
VERTEX
  5
215
330
213
100
AcDbEntity
  8
sideviews
 62
     3
370
    35
100
AcDbVertex
100
AcDb2dVertex
 10
144.9997626048091
 20
-299.9999483842014
 30
0.0
  0
SEQEND
  5
216
330
213
100
AcDbEntity
  8
sideviews
370
    35
  0
SPLINE
  5
217
330
1F
100
AcDbEntity
  8
sideviews
 62
     3
370
    35
100
AcDbSpline
210
0.0
220
0.0
230
1.0
 70
     8
 71
     3
 72
    11
 73
     7
 74
     0
 42
0.0000000001
 43
0.0000000001
 40
0.0
 40
0.0
 40
0.0
 40
0.0
 40
1.0
 40
1.0
 40
1.0
 40
2.0
 40
2.0
 40
2.0
 40
2.0
 10
144.9997626048091
 20
-275.5563068972568
 30
0.0
 10
144.9997626048091
 20
-258.6805066627604
 30
0.0
 10
131.5690578555626
 20
-245.0003770003819
 30
0.0
 10
115.0000433740278
 20
-245.0003770003819
 30
0.0
 10
98.4312011472672
 20
-245.0003770003819
 30
0.0
 10
84.9996351241494
 20
-258.6805066627604
 30
0.0
 10
84.9996351241494
 20
-275.5563068972568
 30
0.0
  0
SPLINE
  5
218
330
1F
100
AcDbEntity
  8
sideviews
 62
     3
370
    35
100
AcDbSpline
210
0.0
220
0.0
230
1.0
 70
     8
 71
     3
 72
    11
 73
     7
 74
     0
 42
0.0000000001
 43
0.0000000001
 40
0.0
 40
0.0
 40
0.0
 40
0.0
 40
1.0
 40
1.0
 40
1.0
 40
2.0
 40
2.0
 40
2.0
 40
2.0
 10
513.9999781701111
 20
-274.9995794668404
 30
0.0
 10
513.9999781701111
 20
-257.3262396275088
 30
0.0
 10
499.6725150660541
 20
-242.9998100520973
 30
0.0
 10
481.9998642458195
 20
-242.9998100520973
 30
0.0
 10
464.3268689160363
 20
-242.9998100520973
 30
0.0
 10
449.9997503215279
 20
-257.3262396275088
 30
0.0
 10
449.9997503215279
 20
-274.9995794668404
 30
0.0
  0
SPLINE
  5
219
330
1F
100
AcDbEntity
  8
sideviews
 62
     3
370
    35
100
AcDbSpline
210
0.0
220
0.0
230
1.0
 70
    11
 71
     3
 72
    17
 73
    13
 74
     0
 42
0.0000000001
 43
0.0000000001
 40
0.0
 40
0.0
 40
0.0
 40
0.0
 40
1.0
 40
1.0
 40
1.0
 40
2.0
 40
2.0
 40
2.0
 40
3.0
 40
3.0
 40
3.0
 40
4.0
 40
4.0
 40
4.0
 40
4.0
 10
440.3500378673431
 20
-239.0000541937222
 30
0.0
 10
440.3500378673431
 20
-240.3808484642103
 30
0.0
 10
439.2307263441854
 20
-241.500159987368
 30
0.0
 10
437.8499320736972
 20
-241.500159987368
 30
0.0
 10
436.4691378032092
 20
-241.500159987368
 30
0.0
 10
435.3498262800514
 20
-240.3808484642103
 30
0.0
 10
435.3498262800514
 20
-239.0000541937222
 30
0.0
 10
435.3498262800514
 20
-237.6192599232341
 30
0.0
 10
436.4691378032092
 20
-236.5002929096249
 30
0.0
 10
437.8499320736972
 20
-236.5002929096249
 30
0.0
 10
439.2307263441854
 20
-236.5002929096249
 30
0.0
 10
440.3500378673431
 20
-237.6192599232341
 30
0.0
 10
440.3500378673431
 20
-239.0000541937222
 30
0.0
  0
SPLINE
  5
21A
330
1F
100
AcDbEntity
  8
sideviews
 62
     3
370
    35
100
AcDbSpline
210
0.0
220
0.0
230
1.0
 70
    11
 71
     3
 72
    17
 73
    13
 74
     0
 42
0.0000000001
 43
0.0000000001
 40
0.0
 40
0.0
 40
0.0
 40
0.0
 40
1.0
 40
1.0
 40
1.0
 40
2.0
 40
2.0
 40
2.0
 40
3.0
 40
3.0
 40
3.0
 40
4.0
 40
4.0
 40
4.0
 40
4.0
 10
172.5000650610417
 20
-250.2500135008056
 30
0.0
 10
172.5000650610417
 20
-251.6308077712937
 30
0.0
 10
171.380753537884
 20
-252.7501192944514
 30
0.0
 10
169.9999592673958
 20
-252.7501192944514
 30
0.0
 10
168.6191649969077
 20
-252.7501192944514
 30
0.0
 10
167.4998534737501
 20
-251.6308077712937
 30
0.0
 10
167.4998534737501
 20
-250.2500135008056
 30
0.0
 10
167.4998534737501
 20
-248.8692192303174
 30
0.0
 10
168.6191649969077
 20
-247.7502522167083
 30
0.0
 10
169.9999592673958
 20
-247.7502522167083
 30
0.0
 10
171.380753537884
 20
-247.7502522167083
 30
0.0
 10
172.5000650610417
 20
-248.8692192303174
 30
0.0
 10
172.5000650610417
 20
-250.2500135008056
 30
0.0
  0
SPLINE
  5
21B
330
1F
100
AcDbEntity
  8
sideviews
 62
     6
370
    35
100
AcDbSpline
210
0.0
220
0.0
230
1.0
 70
     8
 71
     3
 72
     8
 73
     4
 74
     0
 42
0.0000000001
 43
0.0000000001
 40
0.0
 40
0.0
 40
0.0
 40
0.0
 40
1.0
 40
1.0
 40
1.0
 40
1.0
 10
220.0046589619259
 20
-70.46873913168838
 30
0.0
 10
220.0046589619259
 20
-69.64053817703432
 30
0.0
 10
220.6764525815497
 20
-68.96874455741059
 30
0.0
 10
221.5046535362037
 20
-68.96874455741059
 30
0.0
  0
POLYLINE
  5
21C
330
1F
100
AcDbEntity
  8
sideviews
 62
     6
370
    35
100
AcDb2dPolyline
 66
     1
 10
0.0
 20
0.0
 30
0.0
  0
VERTEX
  5
21D
330
21C
100
AcDbEntity
  8
sideviews
 62
     6
370
    35
100
AcDbVertex
100
AcDb2dVertex
 10
221.5046535362037
 20
-68.96977808605617
 30
0.0
  0
VERTEX
  5
21E
330
21C
100
AcDbEntity
  8
sideviews
 62
     6
370
    35
100
AcDbVertex
100
AcDb2dVertex
 10
575.9445175426458
 20
-68.96977808605617
 30
0.0
  0
SEQEND
  5
21F
330
21C
100
AcDbEntity
  8
sideviews
370
    35
  0
POLYLINE
  5
220
330
1F
100
AcDbEntity
  8
sideviews
 62
     6
370
    35
100
AcDb2dPolyline
 66
     1
 10
0.0
 20
0.0
 30
0.0
  0
VERTEX
  5
221
330
220
100
AcDbEntity
  8
sideviews
 62
     6
370
    35
100
AcDbVertex
100
AcDb2dVertex
 10
581.9999618770695
 20
-112.0000542254722
 30
0.0
  0
VERTEX
  5
222
330
220
100
AcDbEntity
  8
sideviews
 62
     6
370
    35
100
AcDbVertex
100
AcDb2dVertex
 10
581.944495839757
 20
-74.96975638316728
 30
0.0
  0
SEQEND
  5
223
330
220
100
AcDbEntity
  8
sideviews
370
    35
  0
SPLINE
  5
224
330
1F
100
AcDbEntity
  8
sideviews
 62
     6
370
    35
100
AcDbSpline
210
0.0
220
0.0
230
1.0
 70
     8
 71
     3
 72
     8
 73
     4
 74
     0
 42
0.0000000001
 43
0.0000000001
 40
0.0
 40
0.0
 40
0.0
 40
0.0
 40
1.0
 40
1.0
 40
1.0
 40
1.0
 10
575.9445175426458
 20
-68.96977808605617
 30
0.0
 10
579.2583548899077
 20
-68.96977808605617
 30
0.0
 10
581.944495839757
 20
-71.65591903590547
 30
0.0
 10
581.944495839757
 20
-74.96975638316728
 30
0.0
  0
POLYLINE
  5
225
330
1F
100
AcDbEntity
  8
sideviews
 62
     6
370
    35
100
AcDb2dPolyline
 66
     1
 10
0.0
 20
0.0
 30
0.0
  0
VERTEX
  5
226
330
225
100
AcDbEntity
  8
sideviews
 62
     6
370
    35
100
AcDbVertex
100
AcDb2dVertex
 10
581.9999618770695
 20
-111.9997097159237
 30
0.0
  0
VERTEX
  5
227
330
225
100
AcDbEntity
  8
sideviews
 62
     6
370
    35
100
AcDbVertex
100
AcDb2dVertex
 10
447.86448013977
 20
-94.00011933413886
 30
0.0
  0
SEQEND
  5
228
330
225
100
AcDbEntity
  8
sideviews
370
    35
  0
SPLINE
  5
229
330
1F
100
AcDbEntity
  8
sideviews
 62
     6
370
    35
100
AcDbSpline
210
0.0
220
0.0
230
1.0
 70
     8
 71
     3
 72
     8
 73
     4
 74
     0
 42
0.0000000001
 43
0.0000000001
 40
0.0
 40
0.0
 40
0.0
 40
0.0
 40
1.0
 40
1.0
 40
1.0
 40
1.0
 10
220.0001803377951
 20
-70.48320853272642
 30
0.0
 10
239.0367444606401
 20
-70.48320853272642
 30
0.0
 10
282.0122435818407
 20
-69.07657604609892
 30
0.0
 10
447.8603460251877
 20
-94.01458873517691
 30
0.0
  0
ENDSEC
  0
SECTION
  2
OBJECTS
  0
DICTIONARY
  5
C
330
0
100
AcDbDictionary
281
     1
  3
ACAD_GROUP
350
D
  3
ACAD_LAYOUT
350
1A
  3
ACAD_MLINESTYLE
350
17
  3
ACAD_PLOTSETTINGS
350
19
  3
ACAD_PLOTSTYLENAME
350
E
  3
ACAD_TABLESTYLE
350
22A
  3
ACAD_VISUALSTYLE
350
2A
  0
DICTIONARY
  5
D
102
{ACAD_REACTORS
330
C
102
}
330
C
100
AcDbDictionary
281
     1
  0
DICTIONARY
  5
1A
102
{ACAD_REACTORS
330
C
102
}
330
C
100
AcDbDictionary
281
     1
  3
Layout1
350
1E
  3
Layout2
350
26
  3
Model
350
22
  0
DICTIONARY
  5
17
102
{ACAD_REACTORS
330
C
102
}
330
C
100
AcDbDictionary
281
     1
  3
Standard
350
18
  0
DICTIONARY
  5
19
102
{ACAD_REACTORS
330
C
102
}
330
C
100
AcDbDictionary
281
     1
  0
ACDBDICTIONARYWDFLT
  5
E
102
{ACAD_REACTORS
330
C
102
}
330
C
100
AcDbDictionary
281
     1
  3
Normal
350
F
100
AcDbDictionaryWithDefault
340
F
  0
DICTIONARY
  5
22A
102
{ACAD_REACTORS
330
C
102
}
330
C
100
AcDbDictionary
281
     1
  0
DICTIONARY
  5
2A
102
{ACAD_REACTORS
330
C
102
}
330
C
100
AcDbDictionary
281
     1
  3
2dWireframe
350
2F
  3
3D Hidden
350
31
  3
3dWireframe
350
30
  3
Basic
350
32
  3
Brighten
350
36
  3
ColorChange
350
3A
  3
Conceptual
350
34
  3
Dim
350
35
  3
Facepattern
350
39
  3
Flat
350
2B
  3
FlatWithEdges
350
2C
  3
Gouraud
350
2D
  3
GouraudWithEdges
350
2E
  3
Linepattern
350
38
  3
Realistic
350
33
  3
Thicken
350
37
  0
LAYOUT
  5
1E
102
{ACAD_REACTORS
330
1A
102
}
330
1A
100
AcDbPlotSettings
  1

  2
none_device
  4

  6

 40
0.0
 41
0.0
 42
0.0
 43
0.0
 44
0.0
 45
0.0
 46
0.0
 47
0.0
 48
0.0
 49
0.0
140
0.0
141
0.0
142
1.0
143
1.0
 70
   688
 72
     0
 73
     0
 74
     5
  7

 75
    16
 76
     0
 77
     2
 78
   300
147
1.0
148
0.0
149
0.0
100
AcDbLayout
  1
Layout1
 70
     1
 71
     1
 10
0.0
 20
0.0
 11
12.0
 21
9.0
 12
0.0
 22
0.0
 32
0.0
 14
1.000000000000000E+20
 24
1.000000000000000E+20
 34
1.000000000000000E+20
 15
-1.000000000000000E+20
 25
-1.000000000000000E+20
 35
-1.000000000000000E+20
146
0.0
 13
0.0
 23
0.0
 33
0.0
 16
1.0
 26
0.0
 36
0.0
 17
0.0
 27
1.0
 37
0.0
 76
     0
330
1B
  0
LAYOUT
  5
26
102
{ACAD_REACTORS
330
1A
102
}
330
1A
100
AcDbPlotSettings
  1

  2
none_device
  4

  6

 40
0.0
 41
0.0
 42
0.0
 43
0.0
 44
0.0
 45
0.0
 46
0.0
 47
0.0
 48
0.0
 49
0.0
140
0.0
141
0.0
142
1.0
143
1.0
 70
   688
 72
     0
 73
     0
 74
     5
  7

 75
    16
 76
     0
 77
     2
 78
   300
147
1.0
148
0.0
149
0.0
100
AcDbLayout
  1
Layout2
 70
     1
 71
     2
 10
0.0
 20
0.0
 11
0.0
 21
0.0
 12
0.0
 22
0.0
 32
0.0
 14
0.0
 24
0.0
 34
0.0
 15
0.0
 25
0.0
 35
0.0
146
0.0
 13
0.0
 23
0.0
 33
0.0
 16
1.0
 26
0.0
 36
0.0
 17
0.0
 27
1.0
 37
0.0
 76
     0
330
23
  0
LAYOUT
  5
22
102
{ACAD_REACTORS
330
1A
102
}
330
1A
100
AcDbPlotSettings
  1

  2
none_device
  4

  6

 40
0.0
 41
0.0
 42
0.0
 43
0.0
 44
0.0
 45
0.0
 46
0.0
 47
0.0
 48
0.0
 49
0.0
140
0.0
141
0.0
142
1.0
143
1.0
 70
  1712
 72
     0
 73
     0
 74
     0
  7

 75
     0
 76
     0
 77
     2
 78
   300
147
1.0
148
0.0
149
0.0
100
AcDbLayout
  1
Model
 70
     1
 71
     0
 10
0.0
 20
0.0
 11
12.0
 21
9.0
 12
0.0
 22
0.0
 32
0.0
 14
1.000000000000000E+20
 24
1.000000000000000E+20
 34
1.000000000000000E+20
 15
-1.000000000000000E+20
 25
-1.000000000000000E+20
 35
-1.000000000000000E+20
146
0.0
 13
0.0
 23
0.0
 33
0.0
 16
1.0
 26
0.0
 36
0.0
 17
0.0
 27
1.0
 37
0.0
 76
     0
330
1F
331
29
  0
MLINESTYLE
  5
18
102
{ACAD_REACTORS
330
17
102
}
330
17
100
AcDbMlineStyle
  2
Standard
 70
     0
  3

 62
   256
 51
90.0
 52
90.0
 71
     2
 49
0.5
 62
   256
  6
BYLAYER
 49
-0.5
 62
   256
  6
BYLAYER
  0
ACDBPLACEHOLDER
  5
F
102
{ACAD_REACTORS
330
E
102
}
330
E
  0
VISUALSTYLE
  5
2F
102
{ACAD_REACTORS
330
2A
102
}
330
2A
100
AcDbVisualStyle
  2
2dWireframe
 70
     4
 71
     0
 72
     2
 73
     0
 90
        0
 40
-0.6
 41
-30.0
 62
     5
 63
     7
421
 16777215
 74
     1
 91
        4
 64
     7
 65
   257
 75
     1
175
     1
 42
1.0
 92
        0
 66
   257
 43
1.0
 76
     1
 77
     6
 78
     2
 67
     7
 79
     5
170
     0
171
     0
290
     0
174
     0
 93
        1
 44
0.0
173
     0
291
     0
 45
0.0
1001
ACAD
1000
AcDbSavedByObjectVersion
1070
     0
  0
VISUALSTYLE
  5
31
102
{ACAD_REACTORS
330
2A
102
}
330
2A
100
AcDbVisualStyle
  2
3D Hidden
 70
     6
 71
     1
 72
     2
 73
     2
 90
        0
 40
-0.6
 41
-30.0
 62
     5
 63
     7
421
 16777215
 74
     2
 91
        2
 64
     7
 65
   257
 75
     2
175
     1
 42
40.0
 92
        0
 66
   257
 43
1.0
 76
     1
 77
     6
 78
     2
 67
     7
 79
     3
170
     0
171
     0
290
     0
174
     0
 93
        1
 44
0.0
173
     0
291
     0
 45
0.0
1001
ACAD
1000
AcDbSavedByObjectVersion
1070
     0
  0
VISUALSTYLE
  5
30
102
{ACAD_REACTORS
330
2A
102
}
330
2A
100
AcDbVisualStyle
  2
3dWireframe
 70
     5
 71
     0
 72
     2
 73
     0
 90
        0
 40
-0.6
 41
-30.0
 62
     5
 63
     7
421
 16777215
 74
     1
 91
        4
 64
     7
 65
   257
 75
     1
175
     1
 42
1.0
 92
        0
 66
   257
 43
1.0
 76
     1
 77
     6
 78
     2
 67
     7
 79
     5
170
     0
171
     0
290
     0
174
     0
 93
        1
 44
0.0
173
     0
291
     0
 45
0.0
1001
ACAD
1000
AcDbSavedByObjectVersion
1070
     0
  0
VISUALSTYLE
  5
32
102
{ACAD_REACTORS
330
2A
102
}
330
2A
100
AcDbVisualStyle
  2
Basic
 70
     7
 71
     1
 72
     0
 73
     1
 90
        0
 40
-0.6
 41
-30.0
 62
     5
 63
     7
421
 16777215
 74
     0
 91
        4
 64
     7
 65
   257
 75
     1
175
     1
 42
1.0
 92
        8
 66
     7
 43
1.0
 76
     1
 77
     6
 78
     2
 67
     7
 79
     5
170
     0
171
     0
290
     0
174
     0
 93
        1
 44
0.0
173
     0
291
     1
 45
0.0
1001
ACAD
1000
AcDbSavedByObjectVersion
1070
     0
  0
VISUALSTYLE
  5
36
102
{ACAD_REACTORS
330
2A
102
}
330
2A
100
AcDbVisualStyle
  2
Brighten
 70
    12
 71
     2
 72
     2
 73
     0
 90
        0
 40
-0.6
 41
-30.0
 62
     5
 63
     7
421
 16777215
 74
     1
 91
        4
 64
     7
 65
   257
 75
     1
175
     1
 42
1.0
 92
        8
 66
     7
 43
1.0
 76
     1
 77
     6
 78
     2
 67
     7
 79
     5
170
     0
171
     0
290
     0
174
     0
 93
        1
 44
50.0
173
     0
291
     1
 45
0.0
1001
ACAD
1000
AcDbSavedByObjectVersion
1070
     0
  0
VISUALSTYLE
  5
3A
102
{ACAD_REACTORS
330
2A
102
}
330
2A
100
AcDbVisualStyle
  2
ColorChange
 70
    16
 71
     2
 72
     2
 73
     3
 90
        0
 40
-0.6
 41
-30.0
 62
     5
 63
     8
421
  8421504
 74
     1
 91
        4
 64
     7
 65
   257
 75
     1
175
     1
 42
1.0
 92
        8
 66
     8
424
  8421504
 43
1.0
 76
     1
 77
     6
 78
     2
 67
     7
 79
     5
170
     0
171
     0
290
     0
174
     0
 93
        1
 44
0.0
173
     0
291
     1
 45
0.0
1001
ACAD
1000
AcDbSavedByObjectVersion
1070
     0
  0
VISUALSTYLE
  5
34
102
{ACAD_REACTORS
330
2A
102
}
330
2A
100
AcDbVisualStyle
  2
Conceptual
 70
     9
 71
     3
 72
     2
 73
     0
 90
        0
 40
-0.6
 41
-30.0
 62
     5
 63
     7
421
 16777215
 74
     2
 91
        2
 64
     7
 65
   257
 75
     1
175
     1
 42
40.0
 92
        8
 66
     7
 43
1.0
 76
     1
 77
     6
 78
     2
 67
     7
 79
     3
170
     0
171
     0
290
     0
174
     0
 93
        1
 44
0.0
173
     0
291
     0
 45
0.0
1001
ACAD
1000
AcDbSavedByObjectVersion
1070
     0
  0
VISUALSTYLE
  5
35
102
{ACAD_REACTORS
330
2A
102
}
330
2A
100
AcDbVisualStyle
  2
Dim
 70
    11
 71
     2
 72
     2
 73
     0
 90
        0
 40
-0.6
 41
-30.0
 62
     5
 63
     7
421
 16777215
 74
     1
 91
        4
 64
     7
 65
   257
 75
     1
175
     1
 42
1.0
 92
        8
 66
     7
 43
1.0
 76
     1
 77
     6
 78
     2
 67
     7
 79
     5
170
     0
171
     0
290
     0
174
     0
 93
        1
 44
-50.0
173
     0
291
     1
 45
0.0
1001
ACAD
1000
AcDbSavedByObjectVersion
1070
     0
  0
VISUALSTYLE
  5
39
102
{ACAD_REACTORS
330
2A
102
}
330
2A
100
AcDbVisualStyle
  2
Facepattern
 70
    15
 71
     2
 72
     2
 73
     0
 90
        0
 40
-0.6
 41
-30.0
 62
     5
 63
     7
421
 16777215
 74
     1
 91
        4
 64
     7
 65
   257
 75
     1
175
     1
 42
1.0
 92
        8
 66
     7
 43
1.0
 76
     1
 77
     6
 78
     2
 67
     7
 79
     5
170
     0
171
     0
290
     0
174
     0
 93
        1
 44
0.0
173
     0
291
     1
 45
0.0
1001
ACAD
1000
AcDbSavedByObjectVersion
1070
     0
  0
VISUALSTYLE
  5
2B
102
{ACAD_REACTORS
330
2A
102
}
330
2A
100
AcDbVisualStyle
  2
Flat
 70
     0
 71
     2
 72
     1
 73
     1
 90
        2
 40
-0.6
 41
30.0
 62
     5
 63
     7
421
 16777215
 74
     0
 91
        4
 64
     7
 65
   257
 75
     1
175
     1
 42
1.0
 92
        8
 66
     7
 43
1.0
 76
     1
 77
     6
 78
     2
 67
     7
 79
     5
170
     0
171
     0
290
     0
174
     0
 93
       13
 44
0.0
173
     0
291
     1
 45
0.0
1001
ACAD
1000
AcDbSavedByObjectVersion
1070
     0
  0
VISUALSTYLE
  5
2C
102
{ACAD_REACTORS
330
2A
102
}
330
2A
100
AcDbVisualStyle
  2
FlatWithEdges
 70
     1
 71
     2
 72
     1
 73
     1
 90
        2
 40
-0.6
 41
30.0
 62
     5
 63
     7
421
 16777215
 74
     1
 91
        4
 64
     7
 65
   257
 75
     1
175
     1
 42
1.0
 92
        0
 66
   257
 43
1.0
 76
     1
 77
     6
 78
     2
 67
     7
 79
     5
170
     0
171
     0
290
     0
174
     0
 93
       13
 44
0.0
173
     0
291
     1
 45
0.0
1001
ACAD
1000
AcDbSavedByObjectVersion
1070
     0
  0
VISUALSTYLE
  5
2D
102
{ACAD_REACTORS
330
2A
102
}
330
2A
100
AcDbVisualStyle
  2
Gouraud
 70
     2
 71
     2
 72
     2
 73
     1
 90
        2
 40
-0.6
 41
30.0
 62
     5
 63
     7
421
 16777215
 74
     0
 91
        4
 64
     7
 65
   257
 75
     1
175
     1
 42
1.0
 92
        0
 66
     7
 43
1.0
 76
     1
 77
     6
 78
     2
 67
     7
 79
     5
170
     0
171
     0
290
     0
174
     0
 93
       13
 44
0.0
173
     0
291
     1
 45
0.0
1001
ACAD
1000
AcDbSavedByObjectVersion
1070
     0
  0
VISUALSTYLE
  5
2E
102
{ACAD_REACTORS
330
2A
102
}
330
2A
100
AcDbVisualStyle
  2
GouraudWithEdges
 70
     3
 71
     2
 72
     2
 73
     1
 90
        2
 40
-0.6
 41
30.0
 62
     5
 63
     7
421
 16777215
 74
     1
 91
        4
 64
     7
 65
   257
 75
     1
175
     1
 42
1.0
 92
        0
 66
   257
 43
1.0
 76
     1
 77
     6
 78
     2
 67
     7
 79
     5
170
     0
171
     0
290
     0
174
     0
 93
       13
 44
0.0
173
     0
291
     1
 45
0.0
1001
ACAD
1000
AcDbSavedByObjectVersion
1070
     0
  0
VISUALSTYLE
  5
38
102
{ACAD_REACTORS
330
2A
102
}
330
2A
100
AcDbVisualStyle
  2
Linepattern
 70
    14
 71
     2
 72
     2
 73
     0
 90
        0
 40
-0.6
 41
-30.0
 62
     5
 63
     7
421
 16777215
 74
     1
 91
        4
 64
     7
 65
   257
 75
     7
175
     7
 42
1.0
 92
        8
 66
     7
 43
1.0
 76
     1
 77
     6
 78
     2
 67
     7
 79
     5
170
     0
171
     0
290
     0
174
     0
 93
        1
 44
0.0
173
     0
291
     1
 45
0.0
1001
ACAD
1000
AcDbSavedByObjectVersion
1070
     0
  0
VISUALSTYLE
  5
33
102
{ACAD_REACTORS
330
2A
102
}
330
2A
100
AcDbVisualStyle
  2
Realistic
 70
     8
 71
     2
 72
     2
 73
     0
 90
        0
 40
-0.6
 41
-30.0
 62
     5
 63
     7
421
 16777215
 74
     1
 91
        0
 64
     7
 65
   257
 75
     1
175
     1
 42
1.0
 92
        8
 66
     8
424
  7895160
 43
1.0
 76
     1
 77
     6
 78
     2
 67
     7
 79
     5
170
     0
171
     0
290
     0
174
     0
 93
       13
 44
0.0
173
     0
291
     0
 45
0.0
1001
ACAD
1000
AcDbSavedByObjectVersion
1070
     0
  0
VISUALSTYLE
  5
37
102
{ACAD_REACTORS
330
2A
102
}
330
2A
100
AcDbVisualStyle
  2
Thicken
 70
    13
 71
     2
 72
     2
 73
     0
 90
        0
 40
-0.6
 41
-30.0
 62
     5
 63
     7
421
 16777215
 74
     1
 91
        4
 64
     7
 65
   257
 75
     1
175
     1
 42
1.0
 92
       12
 66
     7
 43
1.0
 76
     1
 77
     6
 78
     2
 67
     7
 79
     5
170
     0
171
     0
290
     0
174
     0
 93
        1
 44
0.0
173
     0
291
     1
 45
0.0
1001
ACAD
1000
AcDbSavedByObjectVersion
1070
     0
  0
ENDSEC
  0
EOF
